<svg xmlns="http://www.w3.org/2000/svg" version="1.1" width="600px" height="600px" viewBox="0 0 200 200" style="overflow:hidden!important;"><g id="svga-group-wrapper"><g id="svga-group-backs-single"><path id="SvgjsPath13293" d="M0 0h200v200H0V0z" fill="#270051" stroke-width="none" opacity="1"></path><path id="SvgjsPath13294" d="M75.9 12.6C50 52.8 18 117.1 50.4 133.9S129.8 94.2 151 97.2s12.5 39.3-9.9 65.2c-17.2 19.8-61.2 31.1-86.7 37.6H200V0H80.6c-.2 3.7-1.7 7.9-4.7 12.6zM39.6 161.1c-15.5-5.6-22-17.7-15.1-47.5C28.7 95.6 16 84.2 0 83.2V200h37.5c11-12.4 13.5-34.7 2.1-38.9z" fill="#13004f" stroke-width="none" opacity="1"></path><path id="SvgjsPath13295" d="M98.7 29.5c-9.3-15.5-28.5-24.1-46-19-7.4 2.2-14.6 6.2-19.8 12-5.5 6.1-8.1 12.2-9.3 20.2-.7 4.4 5.8 8.3 8 3.4 3.6-8.1 11.7-15.6 20.1-18.4 4.6-1.5 9.7-1.9 14.3-.2 4.5 1.6 8.1 5.9 11.4 9.2 3.4 3.5 4.8 7.1 4.2 12-.4 3.9-1.9 8.9-4.9 11.6-2.9 2.5-6.9 3.1-10.5 2.5-2.4-.4-4.9-1.2-7.2-2-2.6-.9-4.5-2.8-7.3-3.2-2.9-.4-6.6.7-7.2 4.1-1.5 8.5 6.3 17 13.6 20.3 9 4.2 20 3.3 28.4-1.8 16.1-9.8 21.9-34.5 12.2-50.7zM200 107.6c-4.1 3.3-7.7 7.1-10.7 11.2-6.3 8.8-10.7 22.6-1.5 31.1 3.5 3.3 7.8 4.7 12.2 5v-47.3zm-73 58.2c-2.5-.7-5.1-1.1-7.7-1.2.3-.4.7-.8 1-1.3 4.1-5.4 9.2-12.6 9.1-19.7-.4-17.7-24.9-18.4-37.7-17.5-15 1.1-29.3 5.9-42.5 13-6.2 3.3-12 7.2-17.7 11.4-4.8 3.5-9.8 7.1-13.4 11.9-.3.2-.5.5-.8.7-3.5 3.1-7.3 6.7-8.3 11.4-1.2 5.5.6 11.4 5.5 14.4 8.4 5.3 21.2 2.1 30.4.6 4-.6 7.9-1.4 11.8-2.2 3.8 3.1 9.2 4.9 13.7 5.5 10.1 1.4 21-.2 28.8-7.2 4.6.6 9.8-.1 14.2-.2 1.4 0 2.9-.1 4.3 0-1 1-2 2-2.9 3-3.7 3.9-7.3 7.6-10.5 11.6h28.4c4.5-4.6 8.7-9.9 9-16.3.4-8.9-6.6-15.6-14.7-17.9zm-.1-122.4c-4.2 11.8-.1 24.1 12 28.7 10.6 4.1 23.2.7 33.2-3.4 9.9-4 19.3-9.1 27.8-15.4V0h-27.2c-9.6 4.4-18.5 10.3-26.6 17.2-8.2 7.1-15.5 15.8-19.2 26.2z" fill="#0a0035" stroke-width="none" opacity="1"></path><path id="SvgjsPath13296" d="M200 145c-1.6 1.1-3.1 2.2-4.6 3.2-22.9 15.8-46.9 31.1-65.8 51.8h.4c2.7-3 5.6-5.9 8.5-8.7 18.6-17.7 40.5-31.3 61.5-45.9v-.4zM10.9 200c2-3.4 4.2-6.6 6-9.4 15.4-22.6 36.5-40.8 58.9-56.3 26.9-18.7 56-33.8 83.2-51.9 14.4-9.5 29.4-20 41-33.1v-.5c-12.4 14.1-28.8 25.2-44.2 35.3-25.5 16.6-52.3 30.8-77.4 48-21.2 14.5-41.3 31.1-57 51.7-3.7 4.8-7.9 10.3-11.2 16.2h.7zm73.2-7.8c20.7-19.7 40.2-40.8 62.6-58.7 16.1-12.9 33.9-24.4 53.3-31.6v-.3c-8.6 3.2-16.9 7.3-24.9 11.9-38.6 22.4-67.1 56.9-99.8 86.6h.4c2.9-2.7 5.6-5.3 8.4-7.9zM0 154.1v.6c15.9-14.9 36.8-25.3 57.4-31.9 33.6-11 69.9-15 102.6-28.8-50.6 20.8-114.9 20.3-156.8 57.2-1.1 1-2.2 1.9-3.2 2.9zm200-85.3c-7.1 6.6-15.1 12.3-23.5 17.1-5.4 3.1-10.9 5.7-16.5 8.1 14.8-6.1 28.4-14 40-25.2zM144.1 0c-.3 1.5-.6 2.9-1.2 4.3-5.5 14.8-21.3 24.1-34.8 30.6C93.2 42.2 77 46.6 60.5 47.8c-16.4 1.3-34.6.3-48.9-8.4C7.1 36.7 3.1 33.1 0 28.9v.8c1.1 1.4 2.3 2.7 3.5 4C16.6 46.4 36 49 53.5 48.6c18.9-.5 37.7-5 54.7-13.2 14.2-7 31.5-17.4 35.8-33.8.1-.5.3-1.1.4-1.6h-.3z" fill="#49006b" stroke-width="none" opacity="1"></path><path id="SvgjsPath13297" d="M55.2 17.1c20.4 0 36.9 16.5 36.9 36.9S75.6 90.9 55.2 90.9 18.3 74.4 18.3 54s16.5-36.9 36.9-36.9z" fill="#b74513" stroke-width="none" opacity="1"></path><path id="SvgjsPath13298" d="M74.6 130.2c16.2 0 29.4 13.2 29.4 29.4S90.8 189 74.6 189s-29.4-13.2-29.4-29.4 13.2-29.4 29.4-29.4z" fill="#1350bc" stroke-width="none" opacity="1"></path><path id="SvgjsPath13299" d="M145.8 29c11.6 0 21 9.4 21 21s-9.4 21-21 21-21-9.4-21-21 9.4-21 21-21z" fill="#48a1af" stroke-width="none" opacity="1"></path><path id="SvgjsPath13300" d="M63.2 21.2c0 7.9-3 17-10.2 24.2s-24.2 22-9.2 20.1S60.4 43.7 67 37.1c5.7-5.7 10.3-9.5 15.3-8.2-5.4-5.8-12.7-9.9-20.9-11.3 1.1 1 1.8 2.2 1.8 3.6zM21.7 69.3c1.5-3.1 2-9 3.8-11.7 2.6-3.9 15.9-17.5 18.3-24 2.4-6.5 3.3-13.5.2-8.3s-2 6.3-7.8 12-9.6 15-8.9 8.1c.6-7 3.9-13.3 7.2-15.9s7.2-3.9 8.1-7.6c.3-1.3.2-2-.1-2.4-14 5.2-24 18.7-24 34.6-.1 5.4 1 10.6 3.2 15.2zm44.4 20c1.7-5.5 4.6-11.8 7.4-16.8 6.3-11.1 10.9-35.3 6.3-23.8-4.6 11.6-5.2 18.5-13.7 26-8.5 7.4-14.4 9.2-17.5 9.6s6.8-7 8.7-9.2c2-2.2 4.6-7.8-1.5-3.3S49 77.9 44 80.3c-4.5 2.2-8.2-.3-11.9 2.4 6.3 5.1 14.3 8.1 23.1 8.1 3.8.1 7.5-.5 10.9-1.5z" fill="#c62500" stroke-width="none" opacity="1"></path><path id="SvgjsPath13301" d="M58.1 46.4c-3.4 4.2-5.3 4.4-8.5 8.9S44 62.6 47 61.4c3-1.2 6.4-3.7 8.3-7.4s2.8-7.6 2.8-7.6zM21 59.4c1-4 .2-6.3 1.6-8.3S26 45 26 45s-2.2 6.1-2.8 8.3-2.2 6.1-2.2 6.1zm69.5-1.7c-1 7.5-8.7 15.3-12.1 17.8-3.4 2.6-7.9 9.7-5.7 7.9s5.3-5.9 8.5-7.9 4.9-3.2 6.9-6.5c.5-.9 1.2-1.8 1.9-2.8 1.3-3.8 2.1-7.9 2.1-12.1 0-4.4-.8-8.6-2.2-12.5.3 4.8 1.3 10.7.6 16.1zM58.3 86.8c-3.4 2.5-6.3 3-10.7 3.3 2.5.5 5 .8 7.7.8 1.8 0 3.6-.1 5.3-.4 1.5-1.9 3-4.2 5-6.5 4.2-4.8 6.5-11.7 5.7-11.9-.8-.2-8.1 11.1-13 14.7zM84 30.9c-6.3 1.5-12.6 6.1-15.4 8.6-3.6 3.2-6.3 15.8-12.5 24.7s-18 4.6-20 1.2 1.2-3.4 3.4-8.1 5.9-6.5 9.3-9.5c3.4-3 10.1-15.2 11.7-20 1.3-4 1-7.4-.5-10.3-.3 0-.6-.1-1-.1-.1 1.6-.3 4.2-.5 6.7-.4 4-4.2 12.3-7.3 16.8C48 45.4 36.9 55.1 33.9 59c-3 4-4.9 12.7 2 15.2s19.4-3.2 22.2-6.9S68.4 45.2 70.3 41c1.4-2.8 9.5-6.8 14.5-9-.2-.4-.5-.8-.8-1.1zm2.8 4c-5.6 2.9-11.3 5.2-13.5 12.1-2.6 7.9-1.6 7.7-3.8 13.7s-5.7 10.9-3 8.1c2.7-2.8 6.5-17.4 7.7-20.6s2-6.1 4.6-7.9c2.3-1.6 6.9-3.4 8.5-4.4-.1-.4-.3-.7-.5-1zM49 17.9c-.4 3.6 1 3.8 1.6 8.5s-.2 5.5-1 9.1-5.7 7.1-8.1 9.7-8.9 7.9-10.5 10.1-3.4 11.1-3.6 15.8c-.1 1.8-.6 3.8-1.3 5.5.3.4.7.9 1.1 1.3 1.2-5.9 2.7-17.4 4.6-21.5 2.2-4.8 8.3-8.1 15.6-15s3.8-7.1 5.7-12.7c1.4-3.9.8-8.2-.1-11.6-1.4.1-2.7.2-4 .5v.3zM18.4 53.5c1-1.9 2-4.2 2.7-6.7 1.8-6.9 2.8-5.2 6.7-12.3 2.4-4.3 4.3-7.4 5-9.8-8.6 6.7-14.3 17.1-14.4 28.8z" fill="#d66c03" stroke-width="none" opacity="1"></path><path id="SvgjsPath13302" d="M30.2 81.6s-4 10.9-5 17.3 3.3 18.8 32.7-15.3 37.7-64.8 35.5-70.4S78 17.7 78 17.7 88.1 7.4 95 9.5c6.8 2.1-.7 23.8-13.7 45.7s-31.8 45-48 52.7-12.2-9.1-3.1-26.3z" fill="#841000" stroke-width="none" opacity="1"></path><path id="SvgjsPath13303" d="M30.2 82.4s-8.4 18.3-4.5 23.7c3.5 4.8 26.4-11.9 41.7-35.2s29.7-51.3 27.3-58.4-20.2 7.8-20.2 7.8 12.2-7.8 16.2-7.8-.7 13.7-4.9 22.4-20 35.1-32 49.4-25.9 22.1-27.1 18.4c-1.2-3.8.9-14.6 3.5-20.3z" fill="#ffb852" stroke-width="none" opacity="1"></path><path id="SvgjsPath13304" d="M162.4 62.8c-4.5 3.6-9.8 6.4-15.5 6.7 1.5-1.4 2.9-2.9 4.2-4.4 4.5-5.1 9.1-8.3 14.8-11.7l.6-.3c.1-.4.1-.8.1-1.2-1.7 1.2-3.6 2-5.5 3-.5.3-1 .5-1.4.8l3.9-3c1-.8 2.1-1.5 3.1-2.2v-.2c0-.5 0-.9-.1-1.4-3.7 3.5-8.4 6.8-12.5 9.5-6.9 4.5-15.2 4.2-22.7 6.9 0 0 0-.1-.1-.1 3.2-2.3 6.8-4.3 9.6-6.3 5.6-4 11-8.4 15.4-13.6 1.9-2.3 3.8-5.5 5-8.9l-1.2-1.2c-3.1 8.3-13.5 17-18.9 21-2.7 2-6.3 4-9.6 6.2.3-.4.6-.8.9-1.1 5.3-6.2 11.6-11.5 16.6-17.9 2.6-3.3 5.2-7.7 5.3-12.1-.7-.3-1.5-.6-2.2-.9.1.4.1.8.1 1.1-.1 2.1-.9 4.2-1.8 6-1.5 2.9-3.6 5.5-5.9 7.9-4.4 4.8-9.3 9.3-13.6 14.3-.2.2-.3.4-.5.6.4-3.2 2.1-6.6 3.7-9.2.8-.7 1.5-1.4 2.2-2.1 1.4-1.5 2.9-3.2 4.1-5.1 1.6-1.6 3.2-3.1 4.6-4.9 2.2-2.8 3.4-6.3 2.6-9.4h-.7c.9 3.5-1.5 7.2-4.6 10.7.8-2.2 1.1-4.5.3-6.7-.6-1.6-1.4-2.7-2.4-3.4-2 .5-3.8 1.3-5.5 2.3 1.6.4 3.1.8 4.7 1.3-1.1 3.9-3.6 6.8-7.1 9.1-.8.6-1.7 1.1-2.6 1.5-.7.2-1.3.5-2 .7-1 .5-1.8.6-2.5.2-.4 1.7-.7 3.4-.7 5.2v.5c.8.6 2.1.9 3.8.8.9 0 1.8-.3 2.7-.6-.8.6-1.5 1.1-2.4 1.6-1.1.7-2.4 1.5-3.8 1.8.1.6.3 1.1.4 1.6 2.1-.6 4.1-1.6 5.9-2.8-1.3 2.6-2.4 5.8-2.3 8.7-.2.2-.3.4-.5.6 1.1 1.5 2.3 2.8 3.7 4 4.9-1.8 10.2-2.1 15.3-3.6 2.6-.8 5-2 7.2-3.5-1.2 1-2.3 2.1-3.4 3.2-2.9 2.9-5.6 6-8.8 8.5.8.1 1.6.2 2.4.2l.2-.2c1.6.1 3.2 0 4.9-.3 5.3-1.6 9.6-4.4 12.5-8.2zm-33.8-13.3c-1.9.4-3.1-.5-3.5-2.8.6.1 1.3 0 2.1-.1 5.8-.8 12.9-6.7 13.7-12.9.1 0 .1 0 .2.1 1.4 1.9-.5 5.6-1.5 7.3-.5.9-1.1 1.8-1.7 2.6-1.4 1.6-3.1 3-5.1 4.2-1.2.9-2.5 1.7-4.2 1.6zm34.9-9.1c.1-.4.3-.7.4-1.1-.3-.5-.6-1-.9-1.4-1 2.5-2.3 5-2.4 7.6-.1 2.2 1.4 3.8 3.6 3.7.9 0 1.8-.3 2.5-.8 0-.5-.1-1-.1-1.4-.2.2-.4.3-.6.4-1.4 1.3-2.8.7-4-1.9.1-.9.3-1.7.6-2.5.2-.8.5-1.7.9-2.6z" fill="#6bd3dd" stroke-width="none" opacity="1"></path><path id="SvgjsPath13305" d="M139 63.7c3.7-2 7.5-3 10.8-5.7-3.3 2.4-7.5 3.7-10.9 5.6-.1 0 0 .1.1.1zm15.6-11.9c-1-1.3-3.6 1.8-4.1 2.2-2.1 1.8-4.1 3.6-6.6 5-1.7 1-3.4 1.9-4.6 3.5-.1.1.1.2.1.1 2.1-2.3 5.2-3.4 7.7-5.3 1-.8 1.9-1.6 2.8-2.4.5-.5 1-1 1.6-1.4.9-.6 3.3-2 2.2.1-.5 1-1.1 1.8-1.8 2.5 1.5-1.4 3.4-3.4 2.7-4.3zm-4.8 6.2c.7-.5 1.4-1.1 2.1-1.8-.9.8-1.6 1.5-1.9 1.7-.1 0-.1.1-.2.1zm-2.1-19.3c-1.1 1.8-2.6 3.5-4.1 5-2.1 2.1-4.3 4-6.6 5.9-3.5 2.9-7.1 5.7-10.3 9 .1.1.1.2.2.4 5.8-5.6 12.7-10.1 18.1-16.1 3.6-4 6.5-9.5 3-13.7h-.7c1.8 2.6 1.9 6.9.4 9.5zm13.9 24.1c-4 3.1-9 6.4-14.3 8.2.9-.1 1.7-.2 2.5-.3 4.5-1.9 8.7-4.8 12.1-7.4.1-.1.2-.1.3-.2.5-.6.9-1.2 1.3-1.8-.6.4-1.2.9-1.9 1.5zM154 34.9c-.1.7-.5 3-1.1 3.2-2.4.7-1-1.7-.8-2.4.6-2 .6-4.1-.4-5.8-.1 0-.2-.1-.3-.1.8 1.4 1 3 .7 4.7-.2 1-1.1 2.4-1 3.5.1.8.7 1.3 1.4.9 1.2-.6 1.8-3.5 1.9-4.6.2-1.2.1-2.3-.1-3.5-.1 0-.2-.1-.3-.1.2 1.3.2 2.7 0 4.2zm-26.3 4.6c1.3-.8 2.8-1.4 4.1-2 .5-.2 1-.5 1.5-.8.1-.1.2-.1.3-.2.1 0 .2-.1.2-.2.3-.2.6-.5.9-.7 1.7-1.4 3.1-3.3 3.8-5.2-.3.1-.5.2-.8.3-.1.2-.2.3-.2.5-.1.2-.2.5-.4.7.1-.2.1-.4.2-.6V31c-.3.1-.5.2-.8.4-.1.7-.3 1.3-.6 1.8-1.1 2.4-3.2 3.5-5.5 4.5-.2.1-.3.1-.5.2-.5.1-.9.2-1.4.3-.1.1-.1.2-.2.3h.6c-.3.1-.5.2-.8.4-.1 0-.2.3-.4.6zm8.3 4.1c1.5-1.9 3.3-5.4 4.2-8.9.8-1.7 1.6-3.5 2.2-5.4-.1 0-.3 0-.4.1-.4 1.2-.9 2.4-1.4 3.5.1-.5.1-1 .1-1.5.2-.4.3-.8.3-1.2v-.6c-.2 0-.4.1-.7.2v.2c-.1.6-.2 1.2-.6 1.9-.5 1-1.6 1.9-2.4 2.7-2.8 2.7-6.4 5.5-10.3 6-.1.2-.2.3-.2.5 2.5-.2 4.8-1.4 6.9-2.9 2.1-1.4 5.2-3.6 6.6-6.2 0 .5-.1 1.1-.2 1.6C139 36 137.8 38 137 39c-1.2 1.7-7.7 8.8-12.1 9.1v.5c4.4-.4 11-7.2 12.5-9.3.6-.8 1.4-2.1 2.2-3.6-.7 2.3-1.8 4.5-2.7 5.9-1.1 1.6-2.4 3.1-3.8 4.4-1.1 1-2.4 2-3.7 2.7-1.8 1.1-3.3 1.5-4.6 1.2v.5c4.4.4 8.7-3.7 11.2-6.8zm-4.4 8.4c3.8-4 9-7.1 12-11.8 2.1-3.2 3.1-7.3 1.1-10.9-.1-.1-.1-.2-.2-.2-.8 0-1.5.1-2.2.2l2.7 1.6c.1 1.1.3 2.1.4 3.2-.1 3-1.5 5-3.2 7.2-1.6 1.9-3.4 3.5-5.2 5-3.4 2.9-6.7 6-9.4 9.5-.4.6-.9 1.2-1.3 1.9.1.1.1.3.1.4 1.7-2.3 3.6-4.4 5.2-6.1zm30.8 3.8c-.2.3-.3.6-.5.9-3.2 2.1-6.6 3.9-9.2 6.7-2.5 2.7-4.7 5.3-7.2 7.4-.1.1-.2.1-.3.2h1.5l.3-.3c6.3-3.1 11.8-7.5 15.4-13.7 1.5-.9 2.8-1.8 4.1-2.9.1-.3.1-.6.1-.8-1.1 1.1-2.4 2-3.7 2.9.2-.4.5-.9.7-1.3 1.4-2.8 2.3-6.2 2.6-9.8-.1-.4-.2-.8-.3-1.3-.3 4.2-1.5 8.4-3.5 12zm-14.3 13.7c1.1-1.1 2.1-2.2 3.1-3.5 3-3.5 6.2-6.2 10.2-8.5-3.3 5.3-8 9.2-13.3 12zm-2.9-3.9c-2.6 1.4-5.4 2.6-8.3 3.4.6.3 1.2.5 1.8.7 2.3-.9 4.4-2 6.4-3.3 3.4-1.9 6.5-4.2 9.3-7.3 5.4-6.1 8.4-14 7.9-21.9-.2-.3-.4-.5-.6-.8.6 8.8-2.7 17.4-9.3 23.8-1 .9-2 1.8-3 2.5 2-2 3.8-4.4 5.2-7.1 1.4-2.6 2.4-5.2 3.1-7.8 1.5-4.7 1.8-9.6.8-14.5-.2-.2-.5-.4-.8-.6.4 1.4.6 2.8.7 4.3-.2-1.3-.5-2.5-.9-3.8V33v.2c-.1-.3-.2-.5-.3-.8-.2-.1-.3-.2-.5-.3.3.7.5 1.3.7 2-.2 2.3-1.2 4.7-2.6 7 .1-.4.3-.8.4-1.1.7-2.3 1-5.4.7-8.3l-.6-.3c.3 2.6 0 5.4-.6 7.7-.5 1.8-1.1 3.6-2 5.2-2.2 3-4.7 5.7-6.4 7-4.7 3.8-12.9 8.5-19.7 7.7.1.1.1.2.2.3 8.3 1.2 18.9-6.2 23.8-11.4-1.2 1.7-2.5 3.2-4 4.6-3.9 3.6-13 7.2-15.4 12.7.1.1.3.2.4.4 2.9-5.6 11.1-8.5 15.5-12.6 2.9-2.7 5.2-5.9 6.8-9.5 1.7-2.8 3.1-6.2 3.4-9.3.6 1.9 1 3.8 1 5.8 0 .5 0 1-.1 1.6 0 .4-.1.8-.1 1.2 0 .2 0 .3-.1.5-.1.5-.1 1-.2 1.4 0 .2-.1.4-.1.6-.1.5-.2.9-.3 1.4 0 .1-.1.2-.1.3-.7 2.4-1.7 4.7-3.1 6.9-2.6 4.2-6.2 7.7-10.3 10.3-2.2 1.4-5.4 3.3-8.5 4.1.3.2.6.3 1 .5 5.9-1.8 12.2-7.1 15.2-10.5.8-.9 1.5-1.9 2.2-2.8-.1.2-.2.3-.3.5-2 4.1-4.9 7.2-8.3 9.6z" fill="#ffffff" stroke-width="none" opacity="1"></path><path id="SvgjsPath13306" d="M57 137.1c6.6 3.6 13.7 6.1 21.1 7.3 6.2 1 14.8 2.1 19.7-2.9-.3-.4-.6-.7-.8-1.1-1.2-1.4-2.6-2.8-4-3.9-.2.1-.4.3-.6.4-2.2 1.3-5.9.8-8.2.5-5.1-.5-10.2-1.8-14.9-3.7-1.5-.6-3-1.3-4.5-2-3 1.1-5.9 2.7-8.5 4.8.1.3.4.5.7.6zm15.3 32.7c-7.6-1.2-15.3-3-22.1-6.7-1.8-1-3.5-2.1-5.1-3.2.1 6.7 2.4 13.4 7 18.8 8.3 9.7 21.5 12.7 32.8 8.4-3.1-.3-6.3-1-9.2-2-6.1-2.1-11.5-5.6-16.8-9.2 5 1.3 10.2 2 15.2 2.6 8 .9 16.3.7 23.9-1.3 2.5-3.4 4.3-7.2 5.2-11.2-.5 0-.9-.1-1.4-.1-8.8-.7-17.3-3.7-25.5-7-8.2-3.4-16.3-7.4-23.2-13.1-1-.8-2-1.7-3-2.6-1.4 2.1-2.5 4.3-3.3 6.6 5 4.4 11.2 7.7 16.3 10.3 8.9 4.5 18.6 8.3 28.5 10.4-6.5.7-13.1.2-19.3-.7z" fill="#003daa" stroke-width="none" opacity="1"></path><path id="SvgjsPath13307" d="M104.2 161.9c.4-3.9-.1-7.8-1.2-11.6-1.2-3.7-3.1-7.2-5.7-10.2s-5.7-5.5-9.2-7.2c-3.5-1.8-7.3-2.8-11.2-3.1-7.8-.6-15.8 2.1-21.6 7.2-2.9 2.6-5.3 5.7-7.1 9.1-1.7 3.5-2.8 7.2-3.1 11.1-.3 3.9.1 7.8 1.3 11.5s3 7.2 5.5 10.2 5.6 5.5 9.1 7.2c3.5 1.8 7.3 2.8 11.2 3 7.8.5 15.6-2.2 21.5-7.2 5.9-4.9 9.7-12.2 10.5-20zm-.7-.3c-6.8 1.4-14.5.7-20.9-.7-1.4-.3-2.8-.7-4.2-1 .9 0 1.8 0 2.8-.1 7.3-.5 15.9-2.5 21.2-7.9.9 3.1 1.3 6.4 1.1 9.7zm-1.3-10.6c-4.5.6-9.4-.4-13.4-1.3-5.7-1.4-11.1-3.7-16-6.8-4-2.6-7.7-5.8-10.8-9.4 1.2-.6 2.4-1 3.6-1.4.1 0 .2-.1.3-.1 4.6 2.6 10.9 3.3 15.6 3.8 2.9.3 6.3.5 9.6.2 2 1.4 3.8 3.1 5.4 4.9 2.6 2.9 4.5 6.3 5.7 10.1zm-25.4-20.3c4.7.4 9.2 1.9 13.2 4.4-1.8.2-3.6.2-5.1.2-3.9-.1-7.9-.7-11.7-1.6-1.3-.3-2.7-.7-4-1.1-.8-.3-1.6-.6-2.3-1 3.2-.8 6.6-1.2 9.9-.9zm-15.4 2.9c2.3 2.6 4.9 4.9 7.4 6.9 6.2 4.9 13.6 8.2 21.3 9.8 3.5.7 8.1 1.5 12.1 1v.1c-1.4 1.4-2.9 2.6-4.6 3.6-6.1 3.5-13.7 4.7-20.8 4.5-4.2-1.3-8.2-2.9-12-5.1-2.7-1.5-5.2-3.2-7.5-5.3-1.2-1.1-2.4-2.2-3.4-3.6-.5-.7-1.6-2.2-2.5-4 1.2-1.5 2.6-2.9 4.1-4.2 1.9-1.4 3.9-2.6 5.9-3.7zM51.2 142c1 1.9 2.3 3.6 3 4.5 5.3 6.3 13.2 10.3 21 12.9-.3 0-.6 0-.9-.1-9.2-.6-19.3-3.5-27.6-8.7 1-3 2.5-6 4.5-8.6zm-4.7 9.3c9.1 5.6 20.4 8.4 30.4 8.6 7.5 2.3 17.8 4 26.6 2.2-.3 3.7-1.2 7.3-2.9 10.7-.9 1.8-2 3.5-3.3 5.1-1.9.8-3.9 1.5-5.9 1.9-14.6 3.1-30.2-2.8-41.8-11.7-1.3-1-2.5-2.1-3.7-3.2-.5-2.6-.7-5.2-.5-7.8.1-1.8.5-3.8 1.1-5.8zm-.4 14.5c5.9 5.4 13.4 9.4 20.5 12 9.6 3.6 20.6 4.4 30.2.8-.7.8-1.3 1.5-2.1 2.2-3.3 1.8-6.9 3.1-10.7 4-3.9.4-7.9.3-11.8-.2-6.3-.8-13.9-3.2-20.5-7.1-2.7-3.4-4.6-7.4-5.6-11.7zM93.4 182c-.6.5-1.3 1-2 1.5-1.4.3-2.7.6-4.1.9 2.1-.6 4.1-1.4 6.1-2.4zm-41.1-3.8c6.5 3.9 13.9 6.4 21.5 7.2 2.2.2 4.4.3 6.6.2-4 .7-8 .9-11.8.8-2.2-.1-4.3-.3-6.4-.6-3.7-1.8-7-4.3-9.7-7.4 0-.1-.1-.1-.2-.2zm20 10.4c-2.9-.3-5.7-1-8.4-2.1 1.5.2 3.1.4 4.7.4 4.9.1 10.2-.3 15.4-1.6 2.1-.2 4.3-.6 6.4-1-2.1 1.3-4.3 2.4-6.7 3.1-3.8 1.1-7.6 1.5-11.4 1.2z" fill="#ffffff" stroke-width="none" opacity="1"></path><path id="SvgjsPath13308" d="m111.5 40.1-2.4-.2c-.1 0-.3 0-.4.2l-1.5 1.8c-.2.3-.7.2-.7-.2l-.5-2.3c0-.1-.1-.2-.2-.3l-2.2-.9c-.3-.1-.4-.6-.1-.7l2-1.2c.1-.1.2-.2.2-.3l.1-2.4c0-.3.4-.5.7-.3l1.8 1.5c.1.1.2.1.4.1l2.3-.6c.3-.1.6.2.5.6l-.9 2.2c-.1.1 0 .3 0 .4l1.3 2c.2.3 0 .7-.4.6zm42.6 118.5-2.4-.2c-.1 0-.3.1-.4.1l-1.5 1.9c-.2.3-.6.2-.7-.2l-.6-2.3c0-.1-.1-.2-.2-.3l-2.2-.9c-.3-.1-.4-.6-.1-.7l2-1.2c.1-.1.2-.2.2-.3l.1-2.4c0-.3.4-.5.7-.3l1.8 1.6c.1.1.2.1.4.1l2.3-.6c.3-.1.6.2.5.6l-.9 2.2c-.1.1 0 .3 0 .4l1.3 2c.3.2 0 .5-.3.5zM17.2 34.2l-2.4-.2c-.1 0-.3 0-.4.2L13 36c-.2.3-.6.2-.7-.2l-.6-2.3c0-.1-.1-.2-.2-.3l-2.2-.9c-.3-.1-.4-.6-.1-.7l2-1.2c.1-.1.2-.2.2-.3l.1-2.4c0-.3.4-.5.7-.3L14 29c.1.1.2.1.4.1l2.3-.6c.3-.1.6.2.5.6l-.9 2.2v.4l1.3 2c.2.2-.1.5-.4.5zm81.6 75.5-2.4-.2c-.1 0-.3.1-.4.2l-1.5 1.8c-.2.3-.7.2-.7-.2l-.6-2.3c0-.1-.1-.2-.2-.3l-2.2-.9c-.3-.1-.4-.6-.1-.7l2-1.2c.1-.1.2-.2.2-.3l.1-2.4c0-.3.4-.5.7-.3l1.8 1.6c.1.1.2.1.4.1l2.3-.6c.3-.1.6.2.5.6l-.9 2.2c-.1.1 0 .3 0 .4l1.3 2c.2.1 0 .5-.3.5zm-43.3 20.9-2.4-.2c-.1 0-.3.1-.4.1l-1.5 1.9c-.2.3-.7.2-.7-.2l-.5-2.3c0-.1-.1-.2-.2-.3l-2.2-.9c-.3-.1-.4-.6-.1-.7l2-1.2c.1-.1.2-.2.2-.3l.1-2.4c0-.3.4-.5.7-.3l1.8 1.6c.1.1.2.1.4.1l2.3-.6c.3-.1.6.2.5.6l-.9 2.2v.4l1.3 2c.1.1-.1.5-.4.5zM172.7 112l-1.5-.1c-.1 0-.2 0-.2.1l-1 1.2c-.1.2-.4.1-.5-.1l-.4-1.5c0-.1-.1-.2-.2-.2l-1.4-.6c-.2-.1-.2-.4 0-.5l1.3-.8c.1-.1.1-.1.1-.2l.1-1.5c0-.2.3-.3.4-.2l1.1 1c.1.1.2.1.2.1l1.5-.4c.2-.1.4.2.3.4l-.6 1.4v.2l.8 1.3c.4.2.2.5 0 .4zm20.7 76-1.5-.1c-.1 0-.2 0-.2.1l-1 1.2c-.1.2-.4.1-.5-.1l-.4-1.5c0-.1-.1-.1-.2-.2l-1.4-.6c-.2-.1-.2-.4 0-.5l1.3-.8c.1-.1.1-.1.1-.2l.1-1.5c0-.2.3-.3.4-.2l1.1 1c.1.1.2.1.2.1l1.5-.4c.2-.1.4.1.3.4l-.6 1.4v.2l.8 1.3c.3.2.2.4 0 .4zM78.6 96.5l-1.6-.1c-.1 0-.2 0-.2.1l-1 1.2c-.1.2-.4.1-.5-.1l-.3-1.5c0-.1-.1-.2-.2-.2l-1.4-.6c-.2-.1-.2-.4 0-.5l1.3-.8c.1-.1.1-.1.1-.2l.1-1.5c0-.2.3-.3.4-.2l1.2 1c.1.1.2.1.2.1l1.5-.4c.2-.1.4.2.3.4l-.5 1.4v.2l.8 1.3c.1.1 0 .4-.2.4zm47.6 61.6-1.5-.1c-.1 0-.2 0-.2.1l-1 1.2c-.1.2-.4.1-.5-.1l-.3-1.5c0-.1-.1-.1-.2-.2l-1.4-.6c-.2-.1-.2-.4 0-.5l1.3-.8c.1-.1.1-.1.1-.2l.1-1.5c0-.2.3-.3.4-.2l1.2 1c.1.1.2.1.2.1l1.5-.4c.2-.1.4.1.3.4l-.6 1.4v.2l.8 1.3c.1.2 0 .5-.2.4zm54.9-74.2-1.2-.9c-.1-.1-.2-.1-.2 0l-1.4.5c-.2.1-.4-.1-.3-.3l.4-1.4v-.2l-.9-1.2c-.1-.2 0-.4.2-.4h1.5c.1 0 .2 0 .2-.1l.8-1.3c.1-.2.4-.2.5.1l.5 1.4c0 .1.1.2.2.2l1.5.4c.2.1.3.3.1.5l-1.2.9c-.1.1-.1.1-.1.2l.1 1.5c-.2.1-.5.3-.7.1zM19.7 20.1l-1.2-.9c-.1 0-.2-.1-.2 0l-1.4.5c-.2.1-.4-.1-.3-.3l.5-1.5v-.2L16 16.5c-.1-.2 0-.4.2-.4h1.5c.1 0 .2 0 .2-.1l.8-1.3c.1-.2.4-.1.5.1l.5 1.4c0 .1.1.1.2.2l1.5.4c.2.1.3.3.1.5l-1.2.9c-.1 0-.1.1-.1.2l.1 1.5c-.1.2-.4.3-.6.2zm-4.6 160.4-1.2-.9c-.1-.1-.2-.1-.2 0l-1.4.5c-.2.1-.4-.1-.3-.3l.4-1.4v-.2l-.9-1.2c-.1-.2 0-.4.2-.4h1.5c.1 0 .2 0 .2-.1l.8-1.3c.1-.2.4-.1.5.1l.5 1.4c0 .1.1.1.2.2l1.5.4c.2.1.3.3.1.5l-1.2.9c-.1.1-.1.1-.1.2l.1 1.5c-.2 0-.5.2-.7.1zm9.2-23.9-1.2-.9c-.1-.1-.2-.1-.2 0l-1.4.5c-.2.1-.4-.1-.3-.3l.5-1.4v-.2l-.9-1.2c-.1-.2 0-.4.2-.4h1.5c.1 0 .2 0 .2-.1l.8-1.3c.1-.2.4-.1.5.1l.5 1.4c0 .1.1.1.2.2l1.5.4c.2.1.3.3.1.5l-1.2.9c-.1.1-.1.1-.1.2l.1 1.5c-.4.1-.6.2-.8.1zM126.9 91l-2.5-2.6c-.1-.2-.3-.2-.6-.2l-3.5.6c-.5.1-.9-.4-.7-.9l1.7-3.2c.1-.2.1-.4 0-.6l-1.7-3.2c-.2-.5.1-1 .7-.9l3.5.6c.2 0 .4 0 .6-.2l2.5-2.6c.4-.4 1-.2 1.1.3l.5 3.6c0 .2.2.4.3.5l3.2 1.6c.5.2.5.9 0 1.1l-3.2 1.6c-.2.1-.3.3-.3.5l-.5 3.6c-.1.6-.8.8-1.1.4zm7.1 92.6-2.5-2.6c-.1-.1-.4-.2-.6-.2l-3.5.6c-.5.1-.9-.4-.7-.9l1.7-3.2c.1-.2.1-.4 0-.6l-1.7-3.2c-.2-.5.1-1 .7-.9l3.5.6c.2 0 .4 0 .6-.2l2.5-2.6c.4-.4 1-.2 1.1.3l.5 3.6c0 .2.2.4.3.5l3.2 1.6c.5.2.5.9 0 1.1l-3.2 1.6c-.2.1-.3.3-.3.5l-.5 3.6c-.2.6-.8.8-1.1.4zm51.8-150.1-3.4-1.2c-.2-.1-.4 0-.6.1l-2.9 2.1c-.4.3-1 0-1-.5l.1-3.6c0-.2-.1-.4-.3-.5l-2.9-2.1c-.4-.3-.3-1 .2-1.1l3.4-1c.2-.1.4-.2.4-.4l1.1-3.4c.2-.5.8-.6 1.1-.2l2 3c.1.2.3.3.5.3h3.6c.5 0 .8.6.5 1l-2.2 2.8c-.1.2-.2.4-.1.6l1.1 3.4c.3.4-.2.9-.6.7zM32.1 142.8l-3.4-1.2c-.2-.1-.4 0-.6.1l-2.9 2.1c-.4.3-1 0-1-.5l.1-3.6c0-.2-.1-.4-.3-.5l-2.9-2.1c-.4-.3-.3-1 .2-1.1l3.4-1c.2-.1.4-.2.4-.4l1.1-3.4c.2-.5.8-.6 1.1-.2l2 3c.1.2.3.3.5.3h3.6c.5 0 .8.6.5 1l-2.2 2.8c-.1.2-.2.4-.1.6l1.1 3.4c.4.4-.1.8-.6.7z" fill="#ffd86c" stroke-width="none" opacity="1"></path><path id="SvgjsPath13309" d="M107 42.6h-.2c-.3-.1-.6-.3-.7-.7l-.6-2.3-2.2-.8c-.3-.1-.6-.4-.6-.8s.1-.7.4-.9l2-1.2.1-2.3c0-.3.2-.7.6-.8s.7-.1 1 .2l1.8 1.5 2.2-.6c.3-.1.7 0 .9.3.2.3.3.6.2 1l-.9 2.2 1.3 1.9c.2.3.2.7 0 1s-.5.5-.9.4l-2.4-.2-1.4 1.8c-.1.2-.4.3-.6.3zm-3.1-4.7 2.1.8c.3.1.5.3.6.6l.5 2.2 1.4-1.7c.2-.2.5-.4.8-.3l2.3.2-1.3-1.9c-.2-.2-.2-.6-.1-.8l.8-2-2.1.6c-.3.1-.6 0-.8-.2l-1.7-1.4-.1 2.2c0 .3-.2.6-.4.7l-2 1zm7.7 1.7zm37.9 121.5h-.2c-.3-.1-.6-.3-.7-.7l-.6-2.3-2.2-.8c-.3-.1-.6-.4-.6-.8s.1-.7.4-.9l2-1.2.1-2.3c0-.4.2-.6.6-.8s.7-.1 1 .1l1.8 1.6 2.2-.6c.3-.1.7 0 .9.3s.3.6.2.9l-.9 2.2 1.3 1.9c.2.3.2.7 0 1s-.5.5-.9.4l-2.4-.2-1.4 1.8c0 .3-.3.4-.6.4zm-3.1-4.7 2.1.8c.3.1.5.4.6.6l.5 2.2 1.4-1.7c.2-.2.5-.4.8-.3l2.3.2-1.3-1.9c-.2-.2-.2-.6-.1-.9l.9-2.1-2.1.6c-.3.1-.6 0-.8-.2l-1.7-1.4-.1 2.2c0 .3-.2.6-.4.7l-2.1 1.2zm7.7 1.7zM12.6 36.7h-.2c-.3-.1-.6-.3-.7-.7l-.6-2.3-2.1-.8c-.3-.1-.6-.4-.6-.8s.1-.7.4-.9l2-1.2.1-2.3c0-.4.2-.6.6-.8.3-.1.7-.1 1 .1l1.8 1.5 2.2-.6c.3-.1.7 0 .9.3s.3.6.2 1l-.9 2.2 1.3 1.9c.2.3.2.7 0 1s-.5.5-.9.4l-2.4-.2-1.4 1.8c-.1.3-.4.4-.7.4zM9.5 32l2.1.8c.3.1.5.3.6.6l.5 2.2 1.4-1.7c.2-.2.5-.4.8-.3l2.3.2-1.3-1.9c-.2-.2-.2-.6-.1-.9l.9-2-2.1.6c-.3.1-.6 0-.8-.2L12 27.9l-.1 2.2c0 .3-.2.6-.4.7l-2 1.2zm7.7 1.7zm77 78.4H94c-.3-.1-.6-.3-.7-.7l-.6-2.3-2.2-.8c-.3-.1-.6-.4-.6-.8s.1-.7.4-.9l2-1.2.1-2.3c0-.3.2-.7.6-.8s.7-.1 1 .2l1.8 1.6 2.2-.6c.3-.1.7 0 .9.3.2.3.3.6.2.9l-.9 2.2 1.3 1.9c.2.3.2.7 0 1s-.5.5-.9.4l-2.4-.2-1.4 1.8c-.1.2-.3.3-.6.3zm-3.1-4.7 2.1.8c.3.1.5.3.6.6l.5 2.2 1.4-1.7c.2-.2.5-.4.8-.3l2.3.2-1.3-1.9c-.2-.2-.2-.6-.1-.8l.8-2.1-2.2.6c-.3.1-.6 0-.8-.2l-1.7-1.4-.1 2.2c0 .3-.2.6-.4.7l-1.9 1.1zm7.7 1.8zm-47.9 23.9h-.2c-.3-.1-.6-.3-.7-.7l-.5-2.3-2.2-.8c-.3-.1-.5-.4-.6-.8s.1-.7.4-.9l2-1.2.1-2.3c0-.3.2-.7.5-.8s.7-.1 1 .2l1.8 1.6 2.2-.6c.3-.1.7 0 .9.3s.3.6.2.9l-.9 2.2 1.3 1.9c.2.3.2.7 0 1s-.5.5-.9.4l-2.4-.2-1.4 1.8c-.1.1-.3.3-.6.3zm-3.1-4.7 2.1.8c.3.1.5.4.6.6l.5 2.2 1.4-1.7c.2-.2.5-.4.8-.3l2.3.2-1.3-1.9c-.2-.2-.2-.6-.1-.8l.8-2.1-2.1.6c-.3.1-.6 0-.8-.2l-1.7-1.4-.1 2.2c0 .3-.2.6-.4.7l-2 1.1zm7.7 1.7zm114.3-16.5h-.1c-.2-.1-.4-.2-.4-.4l-.4-1.5-1.4-.5c-.2-.1-.4-.3-.4-.5s.1-.4.3-.6l1.3-.8.1-1.5c0-.2.1-.4.4-.5.2-.1.4-.1.6.1l1.1 1 1.4-.4c.2-.1.4 0 .6.2s.2.4.1.6l-.6 1.4.8 1.2c.1.2.1.4 0 .6s-.3.3-.6.3l-1.5-.1-.9 1.2c0 .1-.2.2-.4.2zm-1.9-3 1.3.5c.2.1.3.2.4.4l.3 1.4.9-1.1c.1-.2.3-.2.5-.2l1.4.1-.8-1.2c-.1-.2-.1-.4-.1-.5l.5-1.3-1.4.4c-.2.1-.4 0-.5-.1l-1.1-.9-.1 1.4c0 .2-.1.4-.3.5l-1 .6zm4.9 1.1zm17.7 77.9h-.1c-.2-.1-.4-.2-.4-.4l-.4-1.5-1.4-.5c-.2-.1-.4-.3-.4-.5s.1-.4.3-.6l1.3-.8.1-1.5c0-.2.1-.4.4-.5.2-.1.4-.1.6.1l1.1 1 1.4-.4c.2-.1.4 0 .6.2s.2.4.1.6l-.6 1.4.8 1.2c.1.2.1.4 0 .6s-.3.3-.6.3l-1.5-.1-.9 1.2c-.1.1-.3.2-.4.2zm-2-3 1.3.5c.2.1.3.2.4.4l.3 1.4.9-1.1c.1-.1.3-.2.5-.2l1.4.1-.8-1.2c-.1-.2-.1-.4-.1-.5l.5-1.3-1.4.4c-.2.1-.4 0-.5-.1l-1-1-.1 1.4c0 .2-.1.4-.3.5l-1.1.7zm4.9 1.1zM75.7 98c-.3-.1-.5-.2-.5-.4l-.3-1.5-1.4-.5c-.2-.1-.3-.3-.4-.5s.1-.4.3-.6l1.3-.8.1-1.5c0-.2.2-.4.3-.5.2-.1.4-.1.6.1l1.2 1 1.4-.4c.2-.1.4 0 .6.2s.2.4.1.6l-.6 1.4.8 1.2c.1.2.1.4 0 .6s-.3.3-.6.3H77l-.9 1.2c-.1.1-.3.1-.4.1zm-2-2.9 1.3.5c.2.1.3.2.4.4l.3 1.4.9-1.1c.1-.2.3-.2.5-.2l1.4.1-.8-1.2c-.1-.2-.1-.4-.1-.5l.5-1.3-1.4.4c-.2.1-.4 0-.5-.1l-1.1-.9L75 94c0 .2-.1.4-.3.5l-1 .6zm4.9 1.1zm44.7 63.5c-.3-.1-.5-.2-.5-.4l-.3-1.5-1.4-.5c-.2-.1-.3-.3-.4-.5 0-.2.1-.4.3-.6l1.3-.8.1-1.5c0-.2.2-.4.3-.5.2-.1.4-.1.6.1l1.2 1 1.4-.4c.2-.1.4 0 .6.2s.2.4.1.6l-.6 1.4.8 1.2c.1.2.1.4 0 .6s-.3.3-.6.3l-1.5-.1-.9 1.2c-.2.1-.4.2-.5.2zm-2-3 1.3.5c.2.1.3.2.4.4l.3 1.4.9-1.1c.1-.1.3-.2.5-.2l1.4.1-.8-1.2c-.1-.2-.1-.4-.1-.5l.5-1.3-1.4.4c-.2.1-.4 0-.5-.1l-1.1-.9-.1 1.4c0 .2-.1.4-.3.5l-1 .6zm4.9 1.1zm51.7-74-.1-.1c-.2-.2-.2-.4-.2-.6l.4-1.4-.9-1.1c-.1-.2-.2-.4-.1-.6.1-.2.3-.3.5-.3h1.5l.8-1.2c.1-.2.3-.3.6-.2s.4.2.5.4l.5 1.4 1.4.4c.2.1.4.2.4.4s0 .4-.2.6l-1.2.9.1 1.5c0 .2-.1.4-.3.5s-.4.1-.6 0l-1.2-.9-1.4.5c-.2-.1-.4-.1-.5-.2zm-.2-3.6.9 1.1c.1.2.2.3.1.5l-.4 1.3 1.3-.5c.2-.1.4 0 .5.1l1.2.8-.1-1.4c0-.2.1-.4.2-.5l1.1-.8-1.4-.4c-.2-.1-.3-.2-.4-.4l-.4-1.3-.8 1.2c-.1.2-.3.3-.5.3h-1.3zm3.6 3.5zM16.5 20s-.1 0-.1-.1c-.2-.1-.2-.4-.2-.6l.5-1.5-.9-1.1c-.1-.2-.2-.4-.1-.6.1-.2.3-.3.5-.3h1.5l.8-1.2c.1-.2.3-.3.6-.2s.4.2.5.4l.5 1.4 1.4.4c.2.1.4.2.4.5 0 .2 0 .4-.2.6l-1.2.9.1 1.5c0 .2-.1.4-.3.5-.2.1-.4.1-.6 0l-1.2-.9-1.5.3c-.2.1-.4 0-.5 0zm-.2-3.6.9 1.1c.1.1.2.4.1.5l-.4 1.3 1.3-.5c.2-.1.4 0 .5.1l1.2.8-.1-1.4c0-.2.1-.4.2-.5l1.1-.8-1.4-.4c-.2 0-.3-.2-.4-.4l-.3-1.3-.8 1.2c-.1.2-.3.3-.5.3h-1.4zm3.6 3.4zm-8.1 160.5-.1-.1c-.2-.1-.2-.4-.2-.6l.4-1.4-.9-1.1c-.1-.2-.2-.4-.1-.6.1-.2.3-.3.5-.3h1.5l.8-1.2c.1-.2.3-.3.6-.2s.4.2.5.4l.5 1.4 1.4.4c.2.1.4.2.4.4s0 .4-.2.6l-1.2.9.1 1.5c0 .2-.1.4-.3.5s-.4.1-.6 0l-1.2-.9-1.4.5c-.1-.1-.3-.1-.5-.2zm-.1-3.5.9 1.1c.1.1.2.4.1.5l-.4 1.3 1.3-.5c.2-.1.4 0 .5.1l1.2.8-.1-1.4c0-.2.1-.4.2-.5l1.1-.8-1.4-.4c-.2-.1-.3-.2-.4-.4l-.4-1.3-.8 1.2c-.1.2-.3.3-.5.3h-1.3zm3.6 3.4zm5.7-23.8-.1-.1c-.2-.1-.2-.4-.2-.6l.5-1.4-.9-1.1c-.1-.2-.2-.4-.1-.6.1-.2.3-.3.5-.3h1.5l.8-1.3c.1-.2.3-.3.6-.2s.4.2.5.4l.5 1.4 1.4.4c.2.1.4.2.4.4s0 .4-.2.6l-1.2.9.1 1.5c0 .2-.1.4-.3.5-.2.1-.4.1-.6 0L23 156l-1.4.5c-.3 0-.5 0-.6-.1zm-.2-3.5.9 1.1c.1.1.2.4.1.5l-.4 1.3 1.3-.5c.2-.1.4 0 .5.1l1.2.8-.1-1.4c0-.2.1-.4.2-.5l1.1-.8-1.4-.4c-.2-.1-.3-.2-.4-.4l-.5-1.3-.8 1.2c-.1.2-.3.3-.5.3h-1.2zm3.7 3.4zm94.7-67c-.1-.1-.2-.1-.2-.2-.3-.4-.4-1-.1-1.4l1.7-3.2-1.7-3.1c-.2-.5-.2-1 .1-1.4s.8-.6 1.3-.6l3.5.6 2.4-2.5c.4-.4.9-.5 1.4-.3s.9.6.9 1.1l.5 3.6 3.2 1.5c.5.2.8.7.8 1.2s-.3 1-.8 1.2l-3.2 1.6-.4 3.5c-.1.5-.4.9-.9 1.1-.5.2-1.1 0-1.4-.3l-2.5-2.6-3.4.7c-.4-.1-.8-.2-1.2-.5zm1.2-8.4 1.6 2.9c.2.4.2.9 0 1.3l-1.5 3 3.3-.6c.4-.1.9.1 1.2.4l2.4 2.4.4-3.4c.1-.4.3-.8.8-1l3-1.5-3-1.5c-.4-.2-.7-.6-.8-1l-.5-3.3L125 81c-.3.3-.8.5-1.2.4l-3.4-.5zm7 9.6zm-1.1 91.4c-.1-.1-.2-.1-.2-.2-.3-.4-.4-1-.1-1.4l1.7-3.2-1.7-3.1c-.2-.5-.2-1 .1-1.4s.8-.6 1.3-.6l3.5.6 2.4-2.5c.4-.4.9-.5 1.4-.4.5.2.9.6.9 1.1l.5 3.6 3.2 1.5c.5.2.8.7.8 1.2s-.3 1-.8 1.2l-3.2 1.6-.4 3.5c-.1.5-.4.9-.9 1.1-.5.2-1.1 0-1.4-.3l-2.5-2.6-3.4.7c-.4 0-.8-.1-1.2-.4zm1.2-8.4 1.6 2.9c.2.4.2.9 0 1.3l-1.5 3 3.3-.6c.4-.1.9.1 1.2.4l2.4 2.4.4-3.4c.1-.4.3-.8.8-1l3-1.5-3-1.5c-.4-.2-.7-.6-.8-1l-.5-3.3-2.3 2.4c-.3.3-.8.5-1.2.4l-3.4-.5zm7 9.6zm43.7-147.8c-.1 0-.2-.1-.3-.1-.5-.2-.8-.7-.7-1.3l.1-3.6-2.9-2c-.4-.3-.6-.8-.5-1.4.1-.5.5-.9 1-1.1l3.4-1 1-3.3c.2-.5.6-.9 1.1-.9.5-.1 1 .1 1.3.6l2 3h3.5c.5 0 1 .3 1.2.8s.2 1-.1 1.5l-2.2 2.8 1.1 3.3c.2.5 0 1-.4 1.4s-.9.5-1.4.3l-3.4-1.2-2.8 2.1c-.2.1-.6.2-1 .1zm-2.7-8 2.7 2c.4.3.6.7.6 1.1l-.1 3.3 2.7-2c.4-.3.8-.3 1.3-.2l3.2 1.2-1.1-3.2c-.1-.4-.1-.9.2-1.3l2-2.6h-3.3c-.4 0-.9-.2-1.1-.6l-1.9-2.8-1 3.2c-.1.4-.5.8-.9.9l-3.3 1zm10.5 5.5zM24.5 144.6c-.1 0-.2-.1-.3-.1-.5-.2-.8-.7-.7-1.3l.1-3.6-2.9-2c-.4-.3-.6-.8-.5-1.4.1-.5.5-.9 1-1.1l3.4-1 1-3.3c.2-.5.6-.9 1.1-.9.5-.1 1 .1 1.3.6l2 3h3.5c.5 0 1 .3 1.2.8s.2 1-.1 1.4l-2.2 2.8 1.1 3.3c.2.5 0 1-.3 1.4-.4.4-.9.5-1.4.3l-3.4-1.2-2.8 2.1c-.2.2-.7.3-1.1.2zm-2.6-8.1 2.7 2c.4.3.6.7.6 1.1L25 143l2.7-1.9c.4-.3.8-.3 1.3-.2l3.2 1.1-1.1-3.2c-.1-.4-.1-.9.2-1.3l2-2.6H30c-.5 0-.9-.2-1.1-.6l-1.9-2.8-1.1 3.2c-.1.4-.5.8-.9.9l-3.1.9zm10.5 5.6z" fill="#ffe1a6" stroke-width="none" opacity="0.73"></path><path id="SvgjsPath13310" d="M157.3 17.6h.1c.7-.1.7-1 0-1h-.1c-.7-.1-.7 1 0 1zm10.8-5.1c.3 0 .3-.5 0-.5-.4 0-.4.5 0 .5zm1.6 6.2c.2 0 .2-.3 0-.3-.2-.1-.2.3 0 .3zm12.9-7.4c0-.1 0-.1-.1-.2-.1-.2-.3-.2-.3 0 0 .1-.1.1-.1.2 0 .3.6.3.5 0zm.3-8c.2 0 .3 0 .4-.1.2-.1.2-.4 0-.6-.1-.1-.2-.1-.4-.1-.5.1-.5.8 0 .8zM191 17c0-.1 0-.1-.1-.2-.1-.2-.3-.2-.4 0 0 .1-.1.1-.1.2.1.4.7.4.6 0zm3.8-3.1c.3 0 .3-.4 0-.4-.2 0-.2.4 0 .4zm-80.5.7c.5 0 .5-.7 0-.7s-.5.7 0 .7zm-5.5 7.2c.3 0 .3-.5 0-.5-.3.1-.3.5 0 .5zm1.9-10.5c.3 0 .3-.5 0-.5s-.3.5 0 .5zm9.6 6.3c.1 0 .1-.1 0-.1s-.1.1 0 .1zm5.5-6.5c.3 0 .3-.4 0-.4s-.3.4 0 .4zm-.3-7.2c.3 0 .3-.4 0-.4s-.2.4 0 .4zm11.3 3.3c.3 0 .3-.4 0-.4s-.3.4 0 .4zM94.2 35.3c-.2 0-.3 0-.5.2-.1.1-.1.3 0 .4.1.2.3.2.5.2.5-.1.5-.7 0-.8zm2.9 14.4c.2 0 .2-.3 0-.3s-.2.3 0 .3zm5.5-1.8c.3 0 .3-.4 0-.4-.3-.1-.3.4 0 .4zM12.5 56c-.2 0-.2 0-.4.1s-.2.4 0 .5c.2 0 .2.1.4.1.3-.2.3-.8 0-.7zm-4-5.6c.3 0 .3-.5 0-.5s-.3.5 0 .5zm2.5-7c.1 0 .1-.1 0 0 0-.1 0 0 0 0zm22.5-25.7c0-.2 0-.2-.1-.4-.1-.3-.4-.3-.4-.1s-.1.2-.1.4c0 .4.6.4.6.1zm-2.1-7.1c.1 0 .1-.2 0-.2s-.1.2 0 .2zm-2.5.1c.2 0 .2-.4 0-.4s-.2.4 0 .4zm.7-5.7c.3 0 .3-.4 0-.4s-.3.4 0 .4zm5.7 5.4c.3 0 .3-.4 0-.4-.3-.1-.3.4 0 .4zm17.9-5.7c.3 0 .3-.5 0-.5s-.3.5 0 .5zM4.6 15.1c.3 0 .3-.5 0-.5s-.4.5 0 .5zm56.1 88.7c.3 0 .4 0 .6-.2v-.2c-.2-.2-.3-.3-.6-.2-.5-.2-.5.6 0 .6zm-38.9 18.1c.4 0 .4-.6 0-.6s-.4.6 0 .6zm3.9-6.6c.2 0 .2-.3 0-.3s-.2.3 0 .3zm-15.1-12.7c0-.2 0-.2-.1-.4-.1-.1-.3-.1-.4 0-.1.2-.1.2-.1.4-.1.6.7.6.6 0zm7.9-16.4c0-.2 0-.3-.1-.4-.1-.3-.4-.3-.5 0-.1.2-.1.2-.1.4 0 .5.8.5.7 0zm-1.6-10.5c-.1-.1-.3-.2-.4-.3-.1-.1-.3.1-.2.2.1.1.2.3.3.4.2.3.5-.1.3-.3zm-4.1 6.4c.2 0 .2-.4 0-.4s-.2.4 0 .4zm3.6-8.6c.2 0 .2-.3 0-.3s-.2.3 0 .3zm-4.6-2.1c.1 0 .1-.2 0-.2-.2-.1-.2.2 0 .2zm3.2-6.8c.1 0 .1-.2 0-.2-.2-.1-.2.2 0 .2zm164.5 35.6c.1-.1.2-.1.3-.2.2-.1.3-.3.2-.5v-.1c0-.1-.1-.2-.2-.2h-.1c-.2 0-.4 0-.5.2-.1.1-.1.2-.2.3-.3.2.2.7.5.5zm3-5c.4 0 .4-.7 0-.7s-.4.7 0 .7zm2.2 3c.2 0 .2-.3 0-.3s-.2.3 0 .3zm3.9-5.8c.1 0 .1-.2 0-.2s-.2.2 0 .2zm6.1-8.1c.1 0 .2-.1.3-.1s.1-.2 0-.2-.2-.1-.3-.1c-.3-.2-.3.6 0 .4zm-51.5-4.4c.5 0 .5-.8 0-.8s-.5.8 0 .8zm-4 7.5c.1-.1.2-.3.3-.4s-.1-.3-.2-.2c-.1.1-.3.2-.4.3-.5.2 0 .7.3.3zm4.7-3.5c.2 0 .2-.3 0-.3s-.1.3 0 .3zm4-4.3c.2 0 .2-.3 0-.3-.3 0-.3.3 0 .3zm-39.7 6.7c.2 0 .3 0 .5-.1s.2-.4 0-.5-.3-.1-.5-.1c-.5-.1-.5.6 0 .7zm-6.4 8.1c.4 0 .4-.7 0-.7s-.5.7 0 .7zm-5-3.6c.3 0 .3-.5 0-.5s-.3.5 0 .5zm6.8-6.6c.2 0 .2-.3 0-.3-.2.1-.2.3 0 .3zm-1.8 5.4c.2 0 .2-.2 0-.2s-.2.2 0 .2zm-11.1 10c.2 0 .2-.3 0-.3s-.2.3 0 .3zm17.5-1c.3 0 .3-.4 0-.4s-.3.4 0 .4zM31.9 193c.1 0 .2-.1.3-.1.1-.1.1-.3 0-.4-.1 0-.2-.1-.3-.1-.6-.3-.6.9 0 .6zm1.3-8.8c.2 0 .3 0 .5-.1s.2-.5 0-.6-.3-.1-.5-.1c-.5 0-.5.7 0 .8zm1.1 4.8c.2 0 .2 0 .4-.1s.2-.3 0-.3-.2-.1-.4-.1c-.4 0-.4.6 0 .5zm3.7-4.5c0-.1 0-.3-.1-.4 0-.1-.3-.1-.3 0s0 .2-.1.4c.1.3.6.3.5 0zm.2-5.5c.2 0 .2-.4 0-.4-.3 0-.3.4 0 .4zm3.9 6.1c.3 0 .3-.5 0-.5s-.3.5 0 .5zm-9.3-20.4c.3 0 .3-.4 0-.4-.2 0-.2.4 0 .4zm-21.1 22c-.2-.2-.3-.4-.6-.4-.1 0-.3.1-.3.3 0 .3.1.4.4.6.3.4.8-.1.5-.5zM25 165.8c.3 0 .3-.5 0-.5s-.4.5 0 .5zm107.5-37.9c-.1-.1-.1-.2-.2-.4s-.3-.2-.4 0c-.1.1-.1.2-.2.4-.1.7 1 .7.8 0zm-14.7 20.8c.3 0 .3-.5 0-.5s-.3.5 0 .5zm11.8 5.5c.6 0 .6-.9 0-.9s-.5.9 0 .9zm0 8.4c.4 0 .4-.6 0-.6-.3.1-.3.6 0 .6zm-5 6c.2 0 .2-.3 0-.3s-.2.3 0 .3zm-6.8 1.8c.3 0 .3-.4 0-.4s-.2.4 0 .4zm24.3 13.4c.2 0 .3 0 .4-.1.3-.1.3-.5 0-.6-.2-.1-.2-.1-.4-.1-.5 0-.5.8 0 .8zm7.9 10.3c.4 0 .4-.7 0-.7s-.4.7 0 .7zm7.9-8.2c.4 0 .4-.6 0-.6s-.4.6 0 .6zm4.2 7c.3 0 .3-.4 0-.4-.2 0-.2.4 0 .4zm10.1-2.3s0-.1 0 0c-.1-.1-.1 0 0 0zm-16.8-3.1c.2 0 .2-.3 0-.3s-.2.3 0 .3zm3.2-4.3c.2 0 .2-.3 0-.3s-.2.3 0 .3zm-47.6 3.6.3-.9c.1-.3-.3-.5-.5-.3s-.4.4-.5.7c-.2.6.5 1 .7.5zm62.1-57.4c.1-.2.2-.3.3-.5s-.1-.5-.4-.4c-.2.1-.3.2-.5.3-.3.4.3 1 .6.6zm-4.9 12.1c0-.2-.1-.2-.1-.4-.1-.1-.3-.1-.4 0-.1.2-.1.2-.1.4-.2.6.7.6.6 0zm4.3-6.8c.3 0 .3-.4 0-.4-.3-.1-.3.4 0 .4zm5-3.3c.2 0 .2-.3 0-.3s-.2.3 0 .3zm2.2-4.5c.4 0 .4-.6 0-.6s-.4.6 0 .6z" fill="#ffd86c" stroke-width="none" opacity="1"></path></g><g id="svga-group-humanwrap-move" transform="matrix(1,0,0,1,0,0)"><g id="svga-group-humanwrap"><g id="svga-group-hair-back-move" transform="matrix(1,0,0,1,0,0)"><g id="svga-group-hair-back"></g></g><g id="svga-group-humanbody-back"><path id="SvgjsPath12309" d="M180.8 184.9c-2.3-3.4-38.9-17.8-38.9-17.8l-13.4-5.2-5.6-68.8H76.8L71.3 162l-13.4 5.2S21.4 181.6 19 185c-2.3 3.4-3.3 14.9-3.3 14.9V219h168.5v-19.2c-.1.1-1-11.5-3.4-14.9z" fill="#f0c7b1" stroke-width="none" opacity="1"></path></g><g id="svga-group-chinshadow-single"><path id="SvgjsPath12305" d="M83.41 160.9c3 1.6 18.4 1.6 21.4 0 2.3-1.22 14.94-13.04 22.02-20.04l-3.89-47.76H76.82l-4.61 58.02c5.18 4.83 9.98 9.09 11.2 9.78z" fill="#d19271" stroke-width="none" opacity="1"></path></g><g id="svga-group-humanbody-front"><path id="SvgjsPath12310" d="M184.5 219c-.1-6.4-.1-12.8-.1-19.2l-.3-.1s.1-.1.2 0c.1 0 .1.1.1.1v-.4l-.1-.5-.1-.9-.2-1.9c-.2-1.3-.4-2.5-.6-3.8-.2-1.3-.5-2.5-.9-3.8-.4-1.2-.8-2.5-1.5-3.6-.8-.9-1.9-1.5-2.9-2.1-1-.6-2.1-1.1-3.2-1.7-2.1-1.1-4.3-2.1-6.5-3.1-4.4-2-8.7-3.9-13.1-5.7-4.4-1.9-8.8-3.7-13.2-5.5l-13-5.2-1.2-16.9c-.4-5.7-.9-11.5-1.3-17.2l-1.3-17.2-1.5-17.3-.1-.8h-.8c-7.7 0-15.4.1-23.1.1l-23.1.2h-.5v.5L75 110.2l-1.3 17.2c-.8 11.4-1.8 22.8-2.8 34.2-5.6 2.1-11.2 4.2-16.7 6.4-5.6 2.2-11.2 4.5-16.8 6.9-2.8 1.2-5.6 2.4-8.3 3.6-2.8 1.3-5.5 2.5-8.2 4.1-.7.4-1.3.8-2 1.4-.2.1-.4.4-.5.6l-.3.6c-.2.4-.4.7-.5 1.1-.6 1.5-1 3-1.3 4.5-.6 3-1.1 6-1.4 9.1l-.1 19.1v.9h.9l42.1.1H100c14 0 28.1-.1 42.1-.2l42.1-.5h.3v-.3zm-84.5-1-42.1-.1-41.2.1-.1-18.1c.3-3 .6-5.9 1.2-8.9.3-1.4.6-2.9 1.1-4.2.1-.3.3-.7.4-.9l.2-.4.3-.3c.5-.4 1.1-.8 1.8-1.2 2.5-1.5 5.3-2.8 8-4.1 2.7-1.3 5.5-2.5 8.2-3.7 5.5-2.4 11.1-4.8 16.7-7.1s11.2-4.5 16.9-6.7l.2-.1v-.2c.9-11.5 1.7-23 2.7-34.4l1.4-17.2 1.5-16.7 22.6.2c7.4.1 14.8.1 22.3.1l1.3 16.4 1.5 17.2c.5 5.7 1 11.5 1.5 17.2l1.6 17.2v.3l.3.1 13.4 5c4.4 1.7 8.9 3.4 13.3 5.2 4.4 1.8 8.8 3.7 13.2 5.6 2.2 1 4.3 2 6.5 3 1.1.5 2.1 1.1 3.2 1.6 1 .6 2.1 1.2 2.9 2 .7 1.1 1.1 2.3 1.4 3.5.3 1.2.6 2.5.8 3.7.2 1.3.4 2.5.6 3.8l.2 1.9.1.9.1.5v.4c0 6.3 0 12.6-.1 18.9l-41.8-.5c-14 .1-28.1 0-42.1 0z" fill="#c27b55" stroke-width="none" opacity="1"></path><path id="SvgjsPath12311" d="M125.1 142.4s-1.8 23-9.1 32.9c0 0 7.9-25 9.1-32.9zm-34.5 16s5 7.9 11.5 10.1c0 0-9.5 2.2-11.5-10.1zM73.4 140c6.7 25.6 6.7 25.6 8.5 30.7 0 0 .4-12.6-8.5-30.7z" fill="#d19271" stroke-width="none" opacity="1"></path></g><g id="svga-group-clothes-single"><path id="SvgjsPath12691" d="M56.9 166.6s-31.1 11.5-38.3 16.7c0 0-2.3 2.3-3.3 9.3-1 7-1.4 27.3-1.4 27.3h171.5s-.2-16.2-1.3-25.3c-1.2-9.1-1.9-9.3-3.1-10.5-1.2-1.2-27.3-14-38.6-17.5 0 0-1.6 22-40.1 23.6s-45.2-17.5-45.4-23.6z" fill="#000000" stroke-width="none" opacity="1"></path><path id="SvgjsPath12692" d="M185.8 220c-.1-6.6-.3-13.2-.7-19.8-.2-3.3-.6-6.6-1.1-9.8-.3-1.6-.5-3.3-1.3-4.9-.2-.4-.5-.8-.8-1.1-.3-.3-.6-.6-1-.9-.8-.5-1.5-.9-2.2-1.2-5.8-3.1-11.8-5.9-17.8-8.7-3-1.4-6-2.7-9.1-3.9-3.1-1.3-6.1-2.5-9.3-3.5l-.5-.2-.1.6c-.3 2.1-1 4.2-2.1 6.1l-.4.7-.4.7-.9 1.4-1 1.3c-.4.4-.7.9-1.1 1.2-1.5 1.6-3.2 2.9-5 4.1-.9.6-1.8 1.2-2.8 1.7l-3 1.4c-4.1 1.6-8.3 2.9-12.7 3.6l-3.3.5-3.3.3-3.3.3c-1.1.1-2.2 0-3.3.1H96c-1.1 0-2.2-.1-3.3-.1l-3.3-.2-3.3-.4c-2.2-.2-4.3-.8-6.5-1.2-1.1-.2-2.1-.6-3.2-1l-1.6-.5-1.5-.7c-4.1-1.7-7.9-4.1-10.8-7.4l-1.1-1.2c-.3-.4-.6-.9-1-1.3-.7-.9-1.1-1.9-1.7-2.8-1-2-1.6-4.1-1.8-6.4-3.4 1.2-6.6 2.4-9.9 3.6-3.3 1.2-6.5 2.5-9.8 3.8-3.2 1.3-6.5 2.7-9.6 4.1-3.2 1.5-6.4 2.9-9.3 4.9-1.1 1.3-1.7 2.8-2.2 4.2-.5 1.5-.9 3-1.1 4.6-.5 3.1-.6 6.2-.8 9.3-.4 6.2-.6 12.4-.7 18.7v.4h.4c14.3.1 28.6-.1 42.9-.1l42.9-.1h21.4l21.4.1 42.9.2h.4v-.5zm-64.7-.2H99.7l-42.9-.1c-6.8 0-13.6 0-20.5-.1-.1-3.4-.5-6.7-1-10-.6-3.4-1.3-6.8-2.5-10-.6-1.6-1.5-3.2-2.5-4.6-1-1.4-2-2.8-3.2-4.1-2.3-2.6-4.9-4.9-7.6-6.9 2.5 2.3 4.9 4.8 7.1 7.4 2.1 2.6 4.1 5.4 5.3 8.6 1.2 3.1 2 6.5 2.7 9.8.4 1.7.7 3.4 1 5 .3 1.6.6 3.2.8 4.9-7.3 0-14.6-.1-22 0 .1-6.1.3-12.1.6-18.2.2-3.1.3-6.2.8-9.3.2-1.5.6-3 1.1-4.5.5-1.4 1.1-2.9 2-4 2.8-1.9 6-3.4 9.1-4.9 3.2-1.5 6.4-2.8 9.6-4.2 3.2-1.4 6.4-2.7 9.7-4l9.7-3.8c.1 2.1.8 4.4 1.7 6.4.5 1 1 2 1.7 2.9.3.5.6.9 1 1.4l1.1 1.3c3 3.4 6.8 5.9 10.9 7.6l1.5.7 1.6.5c1.1.3 2.1.8 3.2 1 2.2.5 4.3 1.1 6.6 1.3l3.3.5 3.3.2c1.1.1 2.2.2 3.3.2h5.3c-.2.7-.2 1.3-.1 1.9.1.7.2 1.3.5 2-1.1 0-2.1.1-3.2 0-4.8 0-9.6-.2-14.3-.9-.6-.1-1.2-.1-1.8-.2l-1.8-.4-3.5-.7c-1.2-.3-2.3-.7-3.4-1l-1.6-.5c.5-.5.9-1.2 1.2-1.8.3-.7.6-1.5.7-2.3-.6.6-1 1.3-1.4 2-.3.7-.6 1.3-.7 2.1-.6-.2-1.1-.4-1.6-.6-1.5-.6-2.9-1.2-4.3-1.9.3-.3.6-.5.8-.8.3-.3.5-.6.8-.9.5-.7.9-1.4 1.2-2.2-.7.5-1.3 1.1-1.8 1.7-.2.3-.5.7-.7 1.1-.2.3-.3.7-.4 1.1-2.2-1.1-4.2-2.5-6-4.1.8-.4 1.4-.9 2-1.5.6-.6 1.2-1.3 1.6-2.1-.8.4-1.5 1-2.1 1.6-.6.6-1.1 1.2-1.5 2-.5-.5-1.1-.9-1.6-1.4-.5-.4-.8-.9-1.2-1.3-.4-.4-.8-.9-1.2-1.4-.7-1-1.4-1.9-2-3-1.2-2.1-2.1-4.3-2.4-6.7.2 2.4 1.1 4.7 2.2 6.9.5 1.1 1.2 2.1 1.9 3.1.3.5.8.9 1.1 1.4.4.4.8 1 1.2 1.4 3.4 3.5 7.6 6.1 12.1 7.9.6.2 1.1.5 1.7.7l1.7.6c1.2.4 2.3.8 3.5 1.1l3.6.8 1.8.4c.6.1 1.2.2 1.8.2 4.8.7 9.6.9 14.5 1 9.6 0 19.4-1.3 28.4-5 4.5-1.9 8.7-4.3 12.3-7.6 1.8-1.7 3.4-3.4 4.7-5.5 1.4-2 2.5-4.1 3.1-6.5-1.6 4.6-4.7 8.4-8.2 11.6-3.6 3.2-7.8 5.5-12.3 7.3-6.6 2.6-13.6 3.9-20.7 4.4.1-.6.1-1.1 0-1.6-.1-.6-.3-1.2-.6-1.8-.2.7-.2 1.3-.1 1.9.1.5.2 1.1.5 1.6-1.3.1-2.7.1-4 .2.2-.7.2-1.4.2-2.1-.1-.6-.2-1.2-.5-1.9h1.2l3.3-.2c1.1-.1 2.2-.1 3.3-.3l3.3-.5c4.4-.6 8.8-1.9 12.9-3.5 4.1-1.7 8-4.2 11.2-7.4.4-.4.8-.8 1.1-1.3l1.1-1.3.9-1.4.5-.7.4-.8c1-1.8 1.7-3.7 2.1-5.8 2.9.9 5.8 2.1 8.6 3.3l9 3.9c6 2.7 11.9 5.5 17.7 8.6.7.4 1.5.8 2.1 1.2.3.1.6.5.9.7.3.3.4.6.6.9.6 1.4.9 3 1.2 4.6.5 3.2.9 6.5 1.2 9.8.5 6.4.7 12.9.8 19.3l-22.5.1c.3-1.7.5-3.3.8-4.9.3-1.7.6-3.4 1-5 .7-3.3 1.5-6.7 2.7-9.8 1.1-3.1 3.2-5.9 5.3-8.6 2.2-2.6 4.6-5.1 7.1-7.4-2.8 2-5.3 4.4-7.6 6.9-1.2 1.3-2.2 2.6-3.2 4.1-1 1.4-1.8 3-2.4 4.6-1.2 3.2-2 6.6-2.5 10-.5 3.4-.9 6.7-1 10.1l-19.9.1-21.7-.6zm16.2-41.2c.3.7.7 1.2 1.2 1.7s1 .9 1.7 1.2c-.3-.7-.7-1.2-1.2-1.7s-1-1-1.7-1.2z" fill="#000000" stroke-width="none" opacity="1"></path></g><g id="svga-group-head" transform="matrix(1,0,0,1,0,0)"><g id="svga-group-ears-left-move" transform="matrix(1,0,0,1,0,0)"><g id="svga-group-ears-left"><path id="SvgjsPath12207" d="M68.53 80.36s-11.15-9.8-12.94-9.96c-1.54-.14-5.36 8.01-7.05 13.16-.45 1.36-.34 2.88.25 4.2 1.62 3.57 5.21 11.04 8.43 14.78 0 0 2.72.59 3.58.33.86-.25 7.58-5.67 8.27-7.77s.83-11.3-.54-14.74z" fill="#f0c7b1" stroke-width="none" opacity="1"></path><path id="SvgjsPath12208" d="M69.49 84.19c.18 1.31.28 2.64.33 3.96.05 1.32.06 2.65-.01 3.98a26.7 26.7 0 0 1-.17 1.99c-.05.34-.1.67-.2 1.02s-.28.7-.46.96c-.72 1.11-1.6 1.95-2.47 2.8-.88.84-1.78 1.63-2.71 2.4-.47.38-.93.75-1.42 1.11-.24.18-.49.35-.74.52l-.4.24c-.16.08-.35.17-.53.19-.67.08-1.23-.01-1.82-.09-.58-.08-1.15-.19-1.73-.32l-.13-.03-.08-.1c-1.45-1.74-2.63-3.68-3.74-5.65-1.1-1.98-2.1-4.03-3.06-6.1l-1.41-3.11c-.5-1.05-.71-2.29-.54-3.46.06-.59.26-1.14.44-1.67.18-.54.37-1.07.56-1.6.4-1.05.79-2.11 1.22-3.15.86-2.07 1.76-4.13 2.94-6.02.3-.47.62-.93 1-1.36.19-.21.4-.42.67-.59.13-.08.3-.16.52-.16.19.01.32.07.47.12 1.06.47 1.87 1.14 2.75 1.76 1.72 1.29 3.37 2.66 5 4.09 1.64 1.41 3.22 2.86 4.81 4.38.49 1.27.72 2.58.91 3.89zM58.4 72.51c-.85-.59-1.75-1.26-2.59-1.61-.09-.02-.2-.08-.26-.08-.04 0-.12.02-.2.07-.17.1-.35.25-.51.44-.34.36-.65.8-.94 1.24-1.16 1.8-2.18 3.77-3.11 5.77-.46 1.01-.92 2.02-1.32 3.06-.2.52-.4 1.04-.59 1.57-.19.53-.38 1.05-.45 1.6-.15 1.11.06 2.27.55 3.26.47 1.03.98 2.05 1.49 3.05 1.02 2.02 2.12 3.99 3.26 5.91 1.15 1.91 2.36 3.79 3.76 5.42l-.21-.13c1.09.2 2.3.43 3.29.33.11-.01.18-.06.28-.11l.35-.22.7-.5c.47-.34.93-.71 1.39-1.08.92-.74 1.81-1.52 2.68-2.34.85-.82 1.73-1.66 2.39-2.61.17-.25.29-.46.38-.72.08-.27.14-.58.19-.89.09-.63.17-1.27.21-1.91.1-1.29.14-2.6.15-3.9.01-1.31-.04-2.62-.15-3.92-.11-1.3-.27-2.62-.66-3.84-3.33-2.62-6.67-5.35-10.08-7.86z" fill="#e1ac8f" stroke-width="none" opacity="1"></path><path id="SvgjsPath12209" d="M68.79 88.66S58.04 75.08 56.02 76.21c-2.01 1.12-5.19 7.53-5.18 9.67.02 3.14 3.34 8.38 5.01 9.96s3.68 2.55 6.35 1.94c2.66-.61 6.59-9.12 6.59-9.12z" fill="#e1ac8f" stroke-width="none" opacity="1"></path><path id="SvgjsPath12210" d="M60.61 88.64c-.45-1.26-.95-2.5-1.45-3.74a49.61 49.61 0 0 0-1.66-3.64c-.61-1.18-1.22-2.36-1.97-3.45l-.08-.12-.08.12c-.75 1.18-1.45 2.38-2.12 3.62-.33.62-.66 1.25-.96 1.89-.31.64-.57 1.31-.84 1.98l-.04.1.04.12c.46 1.41.96 2.79 1.47 4.18.25.69.54 1.37.83 2.05.3.68.59 1.35.99 2.01l.19.31.25-.23c.34-.31.6-.65.87-1.02.26-.37.49-.76.69-1.17.4-.82.63-1.78.6-2.74v-.06l-.02-.04c-.5-.99-1.03-1.96-1.55-2.94l-.05.03c.42 1.01.83 2.03 1.26 3.03-.04.86-.3 1.68-.68 2.41-.33.62-.77 1.17-1.24 1.65-.26-.49-.5-1.02-.73-1.56l-.81-2.03c-.53-1.32-1.03-2.66-1.52-3.99.45-1.3.94-2.59 1.52-3.82.57-1.23 1.22-2.41 1.96-3.51.67 1.04 1.17 2.23 1.68 3.39l1.54 3.67 1.56 3.67c.52 1.22 1.05 2.45 1.6 3.66l.06-.03c-.41-1.27-.85-2.54-1.31-3.8z" fill="#c27b55" stroke-width="none" opacity="1"></path></g></g><g id="svga-group-ears-right-move" transform="matrix(1,0,0,1,0,0)"><g id="svga-group-ears-right"><path id="SvgjsPath12211" d="M131.47 80.36s11.15-9.8 12.94-9.96c1.54-.14 5.36 8.01 7.05 13.16.45 1.36.34 2.88-.25 4.2-1.62 3.57-5.21 11.04-8.43 14.78 0 0-2.72.59-3.58.33-.86-.25-7.58-5.67-8.27-7.77s-.83-11.3.54-14.74z" fill="#f0c7b1" stroke-width="none" opacity="1"></path><path id="SvgjsPath12212" d="M131.44 80.33c1.58-1.52 3.17-2.97 4.81-4.38 1.62-1.42 3.28-2.8 5-4.09.88-.63 1.69-1.29 2.75-1.76.16-.04.28-.11.47-.12.21 0 .38.08.52.16.28.17.49.37.67.59.38.43.7.89 1 1.36 1.18 1.89 2.07 3.96 2.94 6.02.43 1.04.82 2.09 1.22 3.15.19.53.38 1.06.56 1.6.18.53.37 1.08.44 1.67.17 1.17-.04 2.41-.54 3.46l-1.41 3.11c-.97 2.06-1.96 4.11-3.06 6.1-1.11 1.98-2.29 3.92-3.74 5.65l-.08.1-.13.03c-.58.13-1.15.23-1.73.32-.59.07-1.16.16-1.82.09-.18-.02-.37-.11-.53-.19l-.4-.24c-.25-.17-.5-.34-.74-.52-.48-.36-.95-.73-1.42-1.11-.93-.76-1.83-1.56-2.71-2.4-.87-.86-1.75-1.69-2.47-2.8a3.42 3.42 0 0 1-.46-.96c-.1-.35-.14-.69-.2-1.02-.08-.67-.14-1.33-.17-1.99-.07-1.33-.07-2.65-.01-3.98.06-1.32.15-2.65.33-3.96.17-1.34.4-2.65.91-3.89zm.06.06c-.4 1.21-.56 2.54-.66 3.84-.1 1.3-.15 2.61-.15 3.92.01 1.31.06 2.61.15 3.9.05.65.12 1.29.21 1.91.06.31.11.62.19.89.09.26.2.47.38.72.66.94 1.54 1.79 2.39 2.61.86.81 1.76 1.59 2.68 2.34.46.37.92.73 1.39 1.08l.7.5.35.22c.1.05.17.1.28.11.99.1 2.2-.13 3.29-.33l-.21.13c1.4-1.63 2.61-3.51 3.76-5.42 1.14-1.92 2.24-3.89 3.26-5.91.51-1.01 1.02-2.02 1.49-3.05.49-.99.7-2.15.55-3.26-.07-.56-.26-1.07-.45-1.6s-.38-1.05-.59-1.57c-.4-1.04-.86-2.06-1.32-3.06-.93-2.01-1.95-3.97-3.11-5.77-.29-.44-.6-.88-.94-1.24-.17-.18-.35-.34-.51-.44a.431.431 0 0 0-.2-.07c-.06 0-.17.06-.26.08-.84.35-1.74 1.02-2.59 1.61-3.39 2.49-6.73 5.22-10.08 7.86z" fill="#e1ac8f" stroke-width="none" opacity="1"></path><path id="SvgjsPath12213" d="M131.21 88.66s10.75-13.58 12.77-12.45c2.01 1.12 5.19 7.53 5.18 9.67-.02 3.14-3.34 8.38-5.01 9.96s-3.68 2.55-6.35 1.94c-2.66-.61-6.59-9.12-6.59-9.12z" fill="#e1ac8f" stroke-width="none" opacity="1"></path><path id="SvgjsPath12214" d="M148.54 85.31c-.26-.67-.52-1.34-.84-1.98-.3-.64-.62-1.27-.96-1.89-.67-1.24-1.38-2.44-2.12-3.62l-.08-.12-.08.12c-.74 1.1-1.36 2.27-1.97 3.45-.6 1.18-1.14 2.4-1.66 3.64-.49 1.24-1 2.48-1.45 3.74-.46 1.26-.9 2.53-1.28 3.81l.06.03c.55-1.21 1.07-2.44 1.6-3.66l1.56-3.67 1.54-3.67c.51-1.16 1.01-2.35 1.68-3.39.74 1.1 1.39 2.29 1.96 3.51.58 1.24 1.08 2.52 1.52 3.82-.5 1.34-.99 2.67-1.52 3.99l-.81 2.03c-.23.53-.47 1.07-.73 1.56-.47-.48-.91-1.03-1.24-1.65-.39-.73-.64-1.55-.68-2.41.43-1 .84-2.02 1.26-3.03l-.05-.03c-.52.98-1.05 1.95-1.55 2.94l-.02.04v.06c-.03.96.2 1.92.6 2.74.2.41.43.81.69 1.17.26.36.53.71.87 1.02l.25.23.19-.31c.4-.67.69-1.34.99-2.01.29-.68.57-1.36.83-2.05.51-1.38 1.01-2.77 1.47-4.18l.04-.12-.07-.11z" fill="#c27b55" stroke-width="none" opacity="1"></path></g></g><g id="svga-group-faceshape-wrap"><g id="svga-group-faceshape-single"><path id="SvgjsPath12291" d="M140.4 54.9c-2.2-10-6.3-16-15.2-20.8-9.3-5-25.2-4.8-25.2-4.8s-15.9-.2-25.2 4.8c-8.8 4.8-13 10.8-15.2 20.8-.9 4 0 13.6 0 13.6S62 90.8 62 97.3s-.8 25.8.6 27.9c1.4 2.1 23.7 23.4 26.7 25.1 3 1.6 18.4 1.6 21.4 0s25.3-23 26.7-25.1c1.4-2.1.6-21.4.6-27.9s2.3-28.9 2.3-28.9 1-9.5.1-13.5z" fill="#f0c7b1" stroke-width="none" opacity="1"></path><path id="SvgjsPath12292" d="M140.4 54.9c-2.2-10-6.3-16-15.2-20.8-9.3-5-25.2-4.8-25.2-4.8s-15.9-.2-25.2 4.8c-8.8 4.8-13 10.8-15.2 20.8-.9 4 0 13.6 0 13.6S62 90.8 62 97.3s-.8 25.8.6 27.9c1.4 2.1 23.7 23.4 26.7 25.1 3 1.6 18.4 1.6 21.4 0s25.3-23 26.7-25.1c1.4-2.1.6-21.4.6-27.9s2.3-28.9 2.3-28.9 1-9.5.1-13.5zm0 10.1c-.1 1.1-.2 2.3-.3 3.4-.8 6.8-1.6 13.6-2.3 20.4-.2 1.7-.3 3.4-.5 5.1-.1 1.7-.2 3.5-.2 5.2V114.4c0 1.7-.1 3.4-.1 5.1 0 .8-.1 1.7-.2 2.5 0 .4-.1.8-.1 1.2 0 .4-.1.8-.2 1.1l-.1.2-.3.4-.8.9-1.8 1.8c-2.4 2.4-4.9 4.8-7.3 7.1-2.5 2.3-4.9 4.7-7.4 7-1.2 1.2-2.5 2.3-3.8 3.4-1.3 1.1-4.41 3.72-4.75 3.97-.21.15-.45.26-.7.32-.61.15-1.86.44-2.45.51-1.6.2-3.3.3-5 .4-1.7.1-3.4.1-5 0-1.7-.1-5.7-.5-6.1-.6s-1.32-.32-1.8-.8l-1-.8c-1.3-1.1-2.6-2.2-3.8-3.3-2.5-2.2-5.1-4.5-7.6-6.9-2.5-2.3-5-4.6-7.5-7-1.2-1.2-2.5-2.3-3.7-3.5l-.9-.9-.9-.9c-.2-.2-.85-.55-1.05-1.81-.1-.8-.15-1.59-.25-2.49-.1-.8-.1-1.7-.1-2.5-.1-1.7-.1-3.4-.1-5.1V98.4c0-1.7-.1-3.4-.2-5.1-.5-6.8-1.1-13.6-1.7-20.4l-.1-2.9c-.1-.9-.2-1.7-.2-2.5-.1-1.7-.2-3.4-.2-5.1 0-1.7 0-3.4.1-5 .1-.8.2-1.6.4-2.4.2-.8 2.3-6.8 2.5-7.1.7-1.5 1.5-2.9 2.5-4.3 1-1.3 2.1-2.5 3.3-3.7 1.2-1.1 2.5-2.1 3.9-3s2.9-1.7 4.3-2.4c.4-.2 2.2-.9 2.2-.9s2-.7 2.4-.8c3.2-.9 6.5-1.5 9.9-1.9 3.3-.4 6.7-.6 10.1-.6 1.7 0 3.4.1 5.1.2.8 0 1.7.1 2.5.2s1.7.2 2.5.3c3.3.4 6.7 1 9.9 2.1 1.6.6 3.1 1.2 4.6 2 .4.2.7.4 1.1.6l1.1.7c.7.5 1.4.9 2.1 1.4 2.7 2 5 4.6 6.6 7.6.8 1.5 1.5 3.1 2 4.7.6 1.6.9 3.29 1.3 4.89.2 1.1.31 2.5.31 3.7 0 1.11-.11 5.21-.21 6.31z" fill="#c27b55" stroke-width="none" opacity="1"></path></g></g><g id="svga-group-mouth-single-move" transform="matrix(1,0,0,1,0,0)"><g id="svga-group-mouth-single"><path id="SvgjsPath12376" d="M88.64 129.04s3.92 4.45 11.7 5.26 12.4-6.49 12.4-6.49-2.95 7.35-11.7 7.67-12.08-5.85-12.4-6.44z" fill="#d19271" stroke-width="none" opacity="1"></path><path id="SvgjsPath12377" d="M86.4 126s2.7.4 4.5-1 4.6-4 5.5-5.5c.9-1.6 1.1 1.1 3.7 2s3.5-1.7 4-2.2 3.7 5.6 6.1 6.5c2.3.9 4.1 1.1 4.1 1.1s-2.4 1.6-6.1.7c-3.4-.8-5.6-1.9-7.2-1.8-1.5.1-5.2 1.7-8.5 1.4-3.2-.2-4.9-.5-6.1-1.2z" fill="#da7c87" stroke-width="none" opacity="1"></path><path id="SvgjsPath12378" d="M115.6 126.5c-1.3.1-2.4.7-3.8.8-1.3.1-2.6 0-3.8-.3-2.4-.5-4.6-1.5-7-1.4-2.5 0-4.8.9-7.3 1.1-2.7.2-5.5-.2-8-1.1-.3-.1-.6.4-.3.5 2.2 1.1 4.7 1.7 7.3 1.8 2.9.1 5.5-.9 8.3-1s5.4 1 8.2 1.3c2.1.2 5 .1 6.6-1.1.2-.3.1-.7-.2-.6z" fill="#cb5f6c" stroke-width="none" opacity="1"></path></g></g><g id="svga-group-eyes-left-move" transform="matrix(1,0,0,1,0,0)"><g id="svga-group-eyes-left"><g id="svga-group-eyesback-left"><path id="SvgjsPath12249" d="M80.2 74.2c7.5 0 13.5 5.8 13.5 13s-6 13-13.5 13-13.5-5.8-13.5-13 6-13 13.5-13z" fill="#ffffff" stroke-width="none" opacity="1"></path></g><g id="svga-group-eyesiriswrapper-left" transform="matrix(1,0,0,1,0,0)"><g id="svga-group-eyesiriscontrol-left" transform="matrix(1,0,0,1,0,0)"><g id="svga-group-eyesiris-left"><path id="SvgjsPath12326" d="M80.2 81.6c3.1 0 5.6 2.5 5.6 5.6s-2.5 5.6-5.6 5.6-5.6-2.5-5.6-5.6 2.5-5.6 5.6-5.6z" fill="#634b02" stroke-width="none" opacity="1"></path><path id="SvgjsPath12327" d="M80.2 84.2c1.7 0 3 1.3 3 3s-1.3 3-3 3-3-1.3-3-3 1.3-3 3-3z" fill="#000000" stroke-width="none" opacity="1"></path><path id="SvgjsPath12328" d="m79.5 84.8-.6-.6c-.2-.2-.5-.3-.8-.3s-.6.1-.8.3c-.2.2-.3.5-.3.8s.1.6.3.8l.6.6c.2.2.5.3.7.3.3 0 .6-.1.7-.3.6-.6.6-1.2.2-1.6zm2.7 5.1c1 0 1-1.5 0-1.5-.9 0-.9 1.5 0 1.5z" fill="#ffffff" stroke-width="none" opacity="1"></path></g></g></g><g id="svga-group-eyesfront-left"><path id="SvgjsPath12257" d="M80.2 73.7c-7.8 0-14.1 6.1-14.1 13.6s6.3 13.6 14.1 13.6 14.1-6.1 14.1-13.6S88 73.7 80.2 73.7zm0 21.9c-5.5 0-10.7-2.8-10.8-3.7-.2-1 .9-4.2 3.2-6.8 2.4-2.6 8-3.5 12.8-1.5s5.9 8 5.9 8c.1 1.8-5.6 4-11.1 4z" fill="#f0c7b1" stroke-width="none" opacity="1"></path><path id="SvgjsPath12258" d="M89.4 86.9c.7 0 3.1 0 2.4-.2-1.2-.4-5.6-3.8-6.8-4.3s-5.5-1.3-6.2-1.3-7.1 2.8-7.7 3.2c-.6.4-2.2 6-2.6 6.3-.2.2.4.5.8.7 0 .1 0 .2-.1.3v.2c0 .1.1.2.1.3.1.2.2.3.3.4.2.2.5.4.7.6.5.3 1 .6 1.6.9 2.1 1 4.4 1.6 6.8 1.8 2.4.2 4.7-.1 7-.7 1.1-.3 2.2-.7 3.3-1.2.5-.3 1-.5 1.5-.9l.6-.6c.2-.2.3-.5.3-.8-.2-1.1-.7-2.2-1.2-3.3-.3-.4-.5-.9-.8-1.4zm1.6 5.5-.6.6c-.5.3-1 .6-1.5.8-1.1.4-2.2.8-3.3 1-2.2.4-4.6.7-6.8.5-2.3-.2-4.5-.8-6.6-1.7-.5-.2-1-.5-1.5-.8-.2-.2-.5-.3-.7-.5-.1-.1-.2-.2-.2-.3 0-.1 0-.1-.1-.1v-.2c0-.2 0-.4.1-.6.4-1 1.6-3.8 2.5-5 1.2-1.5 3.6-3.3 6.9-3.3 1.7 0 3.2.2 4.5.5.5.2 1.1.3 1.6.6 1.1.4 2 1.1 2.8 1.8 1.6 1.6 2.8 3.7 3.3 5.9-.1.3-.2.6-.4.8z" fill="#000000" stroke-width="none" opacity="1"></path></g></g></g><g id="svga-group-eyes-right-move" transform="matrix(1,0,0,1,0,0)"><g id="svga-group-eyes-right"><g id="svga-group-eyesback-right"><path id="SvgjsPath12250" d="M119.8 74.2c7.5 0 13.5 5.8 13.5 13s-6 13-13.5 13-13.5-5.8-13.5-13 6-13 13.5-13z" fill="#ffffff" stroke-width="none" opacity="1"></path></g><g id="svga-group-eyesiriswrapper-right" transform="matrix(1,0,0,1,0,0)"><g id="svga-group-eyesiriscontrol-right" transform="matrix(1,0,0,1,0,0)"><g id="svga-group-eyesiris-right"><path id="SvgjsPath12329" d="M119.8 82.3c2.7 0 4.9 2.2 4.9 4.9s-2.2 4.9-4.9 4.9-4.9-2.2-4.9-4.9 2.2-4.9 4.9-4.9z" fill="#634b02" stroke-width="none" opacity="1"></path><path id="SvgjsPath12330" d="M119.8 84.6c1.4 0 2.6 1.2 2.6 2.6s-1.2 2.6-2.6 2.6-2.6-1.2-2.6-2.6 1.2-2.6 2.6-2.6z" fill="#000000" stroke-width="none" opacity="1"></path><path id="SvgjsPath12331" d="M119.2 85.1c-.2-.2-.3-.4-.5-.5-.2-.2-.4-.3-.7-.3-.2 0-.5.1-.7.3-.2.2-.3.4-.3.7 0 .2.1.5.3.7.2.2.4.3.5.5.2.2.4.3.7.3.2 0 .5-.1.7-.3.3-.5.3-1.1 0-1.4zm2.4 4.5c.8 0 .9-1.3 0-1.3-.8-.1-.8 1.3 0 1.3z" fill="#ffffff" stroke-width="none" opacity="1"></path></g></g></g><g id="svga-group-eyesfront-right"><path id="SvgjsPath12259" d="M119.8 73.7c-7.8 0-14.1 6.1-14.1 13.6s6.3 13.6 14.1 13.6 14.1-6.1 14.1-13.6-6.3-13.6-14.1-13.6zm.3 20.6c-5.5 0-11.3-1.9-11.1-3.4 0 0 1.2-5.1 5.9-6.9s9.6-.7 12 1.5c2.4 2.3 4.2 4.8 4 5.6-.1.8-5.3 3.2-10.8 3.2z" fill="#f0c7b1" stroke-width="none" opacity="1"></path><path id="SvgjsPath12262" d="M131.9 90c-.3-.3-3.5-4-4.1-4.3s-4-3.2-4.8-3.2-6.4 0-7.6.4-4.2 2.8-4.7 3.4c-.3.4.2.2.7 0-.4.5-.8 1-1.1 1.5-.6 1-1 2-1.3 3 0 .3.1.6.3.8.2.2.4.4.7.5.5.3 1 .5 1.5.8 1 .4 2.1.8 3.2 1 2.2.5 4.4.8 6.6.7 2.2-.1 4.4-.6 6.5-1.3 1-.4 2.1-.8 3-1.5l.3-.3c.1-.1.1-.2.1-.3v-.3c0-.1 0-.1-.1-.2.4-.2 1-.4.8-.7zm-1.2 1.1c-.1.1-.1.2-.2.2-.8.6-1.9 1-2.9 1.4-2.1.7-4.2 1.1-6.4 1.3-2.2.1-4.3-.1-6.5-.4-1.1-.2-2.1-.4-3.2-.8-.5-.2-1-.4-1.5-.7-.2-.1-.5-.3-.7-.5-.2-.2-.3-.4-.3-.7.6-2.1 1.9-4 3.6-5.3.9-.7 1.8-1.1 2.8-1.5.9-.3 1.7-.5 2.6-.6.2 0 .5-.1.7-.1h.7c1.8-.1 3.7.2 5.3.9 1.3.8 2.3 1.8 2.9 2.5.9 1 2.3 2.9 2.8 3.7.1.2.1.3.1.5.2-.1.2 0 .2.1z" fill="#000000" stroke-width="none" opacity="1"></path></g></g></g><g id="svga-group-facehighlight-single"></g><g id="svga-group-eyebrows-left-move" transform="matrix(1,0,0,1,0,0)"><g id="svga-group-eyebrows-left-rotate" transform="matrix(1,1.7453292519943295e-9,-1.7453292519943295e-9,1,1.2391838311032188e-7,-1.3753196981269866e-7)"><g id="svga-group-eyebrows-left"><path id="SvgjsPath12175" d="M92.8 69.5s-.2 3.9-1 7.1c0 0-16.1-4.6-18-4.8-1.9-.2-8.4 4.1-8.4 4.1l6.5-9.8 3.8.3-.6-.9 8 1.9 7.5 1.2.5 2.8.4-2.8.5 2.8.8-1.9z" fill="#543c32" stroke-width="none" opacity="1"></path><path id="SvgjsPath12176" d="m92.8 69.5-.1.1c-.1.3-.2.5-.4.8-.1.2-.2.4-.3.7l-.4-2.5-.2-.9-.2.9-.3 1.6-.3-1.6v-.2h-.2l-3.9-.7-1.9-.3c-.6-.1-1.3-.2-1.9-.3-2.6-.6-5.1-1.2-7.7-1.8l-.8-.2.5.8.3.1-3.1-.2h-.2l-.1.1c-1.1 1.7-2.1 3.3-3.2 5l-3.2 5-.4.6.6-.4c1.9-1.3 3.9-2.5 6-3.4.5-.2 1.1-.4 1.6-.6.3-.1.5-.1.8-.1l.4.1.4.1c1.1.3 2.3.6 3.4.9 2.3.7 4.5 1.3 6.8 1.9 2.3.6 4.5 1.2 6.8 1.8l.2.1v-.2c.3-1.2.4-2.4.6-3.6.1-.6.1-1.2.2-1.8 0-.3 0-.6.1-.9V69.6l.1-.1c0 .1 0 0 0 0zm-.1.4-.1.4-.1.9-.3 1.8c-.2 1.1-.4 2.2-.7 3.3-2.2-.7-4.4-1.3-6.6-2-2.3-.7-4.5-1.3-6.8-1.8-1.1-.3-2.3-.5-3.4-.8l-.4-.1-.4-.1c-.3 0-.6 0-.9.1-.6.2-1.1.4-1.6.6-1.9.9-3.7 1.9-5.5 3.1l2.9-4.2c1.1-1.6 2.2-3.2 3.2-4.7l3.6.3.7.1-.4-.7-.1-.1c2.3.6 4.6 1.1 6.9 1.6l3.9.6 3.7.5.5 2.5.2 1.2.2-1.2.3-2 .4 1.9.1.3.1-.3.3-.9c.1-.3.2-.6.3-.8v.5zm-2.9 4.7c0-.8-.1-1.7-.2-2.5-.1-.4-.1-.8-.2-1.2s-.2-.8-.4-1.2c.1.4.1.8.1 1.2 0 .4.1.8.2 1.2.1.8.3 1.7.5 2.5zm-1.2-1.7c-.2-.3-.3-.7-.5-1l-.5-1-1-1.9-.2-.5v.6c0 1.6 0 3.2.1 4.8l.3-.1c-.3-.4-.6-.9-.9-1.3l-.9-1.2c-.3-.4-.6-.8-1-1.2-.3-.4-.7-.8-1.1-1.1.3.4.7.8 1 1.2l.9 1.2c.3.4.6.8.9 1.3.3.4.6.9.8 1.3l.3.5v-.6c0-1.6-.1-3.2-.1-4.8l-.2.1 1.1 1.9.6.9c0 .3.2.6.4.9z" fill="#452c22" stroke-width="none" opacity="1"></path></g></g></g><g id="svga-group-eyebrows-right-move" transform="matrix(1,0,0,1,0,0)"><g id="svga-group-eyebrows-right-rotate" transform="matrix(1,1.7453292519943295e-9,-1.7453292519943295e-9,1,1.2705996255135688e-7,-2.123193070246998e-7)"><g id="svga-group-eyebrows-right"><path id="SvgjsPath12177" d="M107.2 73.2s.9 3.1 2.3 5.5c0 0 14.9-6.1 16.8-6.5 1.9-.4 9 2 9 2l-8.2-6.9-3.6.8.4-.8-7.5 2.7-7.1 2v2.3l-.9-2.2v2.3l-1.2-1.2z" fill="#543c32" stroke-width="none" opacity="1"></path><path id="SvgjsPath12178" d="m135.4 74.1-4-3.5c-1.3-1.2-2.7-2.3-4.1-3.5l-.1-.1h-.1l-3 .6.1-.2.4-.7-.8.3c-2.4.8-4.8 1.7-7.2 2.6l-1.8.6-1.8.6-3.7 1.1h-.2v1.5l-.6-1.3-.3-.7v.7l.1 2c-.1-.2-.3-.3-.4-.5-.2-.2-.3-.4-.5-.6l-.1-.1V73.2l.1.2.1.4c.1.2.2.5.2.7.2.5.3.9.5 1.4.3.9.8 1.9 1.2 2.8l.1.2.2-.1c2.1-.8 4.2-1.6 6.4-2.5 2.1-.8 4.2-1.7 6.3-2.5 1.1-.4 2.1-.8 3.2-1.2l.4-.1.4-.1c.3-.1.5-.1.8-.1.6 0 1.1.1 1.7.2 2.2.4 4.4 1.1 6.6 1.8l.6.2-.7-.4zm-8.3-2.1c-.3 0-.6 0-.9.1l-.4.1-.4.1c-1.1.3-2.2.7-3.2 1.1-2.2.8-4.3 1.6-6.4 2.4-2.1.8-4.1 1.7-6.1 2.6-.5-.8-.9-1.7-1.2-2.5-.2-.4-.4-.9-.6-1.4l-.3-.7-.1-.3-.1-.2v-.1c.2.2.3.4.4.6.2.2.3.4.5.7l.2.2V72.8l.6 1.5.4.9v-3.1l3.6-1c1.2-.3 2.5-.7 3.7-1 2.2-.8 4.3-1.5 6.5-2.3v.1l-.3.6.7-.2 3.5-.8c1.3 1.1 2.7 2.2 4 3.3l3.6 2.9c-2-.6-3.9-1.2-6-1.6-.6.1-1.1 0-1.7-.1zm-16 4.7c-.2-.7-.2-1.3-.2-2v-1c0-.3 0-.7.2-1 0 .3.1.7.1 1s.1.7.1 1c-.1.7-.1 1.4-.2 2zm.9-1.5c.1-.3.2-.6.3-.8l.3-.8.6-1.7.2-.4.1.4c.3 1.3.5 2.6.8 3.8h-.3l.6-1.2c.2-.4.4-.8.7-1.1.2-.4.5-.7.7-1.1s.5-.7.8-1c-.3.3-.5.7-.7 1.1-.2.4-.4.7-.7 1.1l-.6 1.2-.6 1.2-.2.4-.1-.4c-.3-1.3-.5-2.6-.8-3.8h.3l-.7 1.6-.4.8c0 .2-.1.4-.3.7z" fill="#452c22" stroke-width="none" opacity="1"></path></g></g></g><g id="svga-group-beardwrap"><g id="svga-group-beard-single-move" transform="matrix(1,0,0,1,0,0)"><g id="svga-group-beard-single"></g></g></g><g id="svga-group-mustache-single-move" transform="matrix(1,0,0,1,0,0)"><g id="svga-group-mustache-single"></g></g><g id="svga-group-nose-single-move" transform="matrix(1,0,0,1,0,0)"><g id="svga-group-nose-single"><path id="SvgjsPath12361" d="M99.1 116.5c.67.12 4.53-3.31 4.53-3.31s2.06 1.59 3.62 1.43c1.56-.16 2.44-1.08 3-1.96.56-.88-.89-3.1-1.78-4.41-.9-1.31-3.54-5.22-4.09-7.02-1.07-3.45-3-4.76-4.92-4.64-1.92.12-4.04 1.52-4.6 3.44-.56 1.92-.72 4.28-1.8 5.76s-3.32 4-3.56 4.72c-.24.72-.11 2.8 1.24 3.56 1.73.97 4.3-.51 4.3-.51s3.18 2.78 4.06 2.94z" fill="#f0c7b1" stroke-width="none" opacity="1"></path><path id="SvgjsPath12362" d="M110.28 110.87c-.42-1.01-1.08-1.86-1.81-2.61.57.88 1.08 1.8 1.39 2.76.15.48.24.97.16 1.42-.05.23-.12.41-.26.6-.13.2-.29.39-.47.54-.69.66-1.7.91-2.68.78-.49-.06-.99-.2-1.46-.39-.45-.16-.86-.39-1.29-.62.38-.56.72-1.15 1.02-1.76-.97.91-1.89 1.83-2.87 2.64-.49.4-.98.8-1.51 1.09-.51.3-1.07.55-1.51.52-.12.01-.21-.02-.31-.04-.09-.05-.17-.06-.3-.16-.24-.15-.49-.36-.74-.55-.5-.39-.99-.82-1.49-1.23-.99-.84-1.99-1.69-3.07-2.48a21.8 21.8 0 0 0 1.68 2.24c-.5.22-1.01.41-1.53.52-.64.12-1.3.15-1.84-.1-1.09-.53-1.72-1.83-1.54-2.94.05-.28.13-.5.3-.74.17-.26.36-.53.56-.79.4-.52.82-1.02 1.26-1.52l.66-.74c.26-.28.46-.56.67-.84.41-.57.77-1.18 1.07-1.83.3-.65.48-1.4.59-2.06.12-.68.22-1.35.3-2.02.15-1.35.27-2.69.31-4.04.1-2.7.03-5.42-.51-8.07.05 2.69-.14 5.35-.4 8-.15 1.32-.29 2.65-.5 3.96-.1.66-.2 1.31-.32 1.96-.12.66-.27 1.22-.54 1.79a9.34 9.34 0 0 1-.94 1.65c-.18.26-.37.53-.57.74-.23.26-.45.51-.66.78-.43.53-.85 1.07-1.24 1.63-.2.28-.39.57-.57.88-.2.33-.34.76-.37 1.14-.13 1.57.85 3.05 2.25 3.55.73.23 1.47.11 2.12-.11.54-.19 1.03-.46 1.49-.77.24.28.47.57.71.84.44.5.91.96 1.41 1.42.25.23.51.44.82.65.13.1.36.22.57.3.22.06.44.12.66.11.88 0 1.55-.38 2.14-.76.58-.41 1.1-.86 1.55-1.37.44-.48.84-.99 1.21-1.53.75.66 1.64 1.25 2.68 1.45.54.12 1.11.12 1.66 0 .55-.14 1.07-.41 1.49-.8.21-.19.39-.42.54-.65.17-.23.29-.54.32-.84.06-.55-.08-1.1-.29-1.6z" fill="#c27b55" stroke-width="none" opacity="1"></path></g></g><g id="svga-group-hair-front"><path id="SvgjsPath12401" d="M142.42 55.29c-.13-2.39-.71-9.41-1.25-10.76-.54-1.35-1.92-4.55-4.99-7.22-3.07-2.66-4.92-4.05-4.92-4.05s.57-3.64-.47-5.23c-1.05-1.58-2.29-4.15-5.53-5.56s-8.16-2.87-8.3-2.87-4.62-1.48-6.71-1.92c-2.09-.44-9.91-1.62-11.77-1.99-1.85-.37-4.22-1.01-5.02-1.89-.81-.88-2.6-3.24-3.2-5.09 0 0-.1 2.09.4 4.25.51 2.16 1.38 3.74 2.36 4.55l-8.38-2.28c-7.75-3.21-9.69-8.54-9.69-8.54.96 4.08 2.58 7.37 5.53 9.99l-.08.03-.4-.1s-1.79-.61-3.47-2.26c-1.69-1.65-3.04-3.78-3.04-3.78s.3 2.46.78 3.74c.47 1.28.88 3.17.88 3.17s-1.85-2.87-2.43-3.57c-.57-.71-2.16-3.1-2.16-3.1s.13 2.26.03 3.74c-.1 1.48-.57 3.54-.57 3.54s-1.55 2.43-2.09 3.34c-.54.91-2.29 3.78-2.56 5.97s-.2 3.37.24 4.35c.44.98 1.01 2.9 1.01 2.9s-2.06 1.32-3.37 2.66c-1.32 1.35-3.27 3.17-4.42 6.27s-1.28 7.89-1.35 9.58-.24 8.26.13 10.32c.37 2.06 1.72 10.76 1.89 11.94.17 1.18 1.35 9.54 1.35 9.54l.95 4.44s-1.04-13.9 2.66-19.46c0 0 .69-13.32 1.85-16.56s1.74-7.3 6.83-11.58c0 0 4.75 3.01 10.31 2.55 0 0 6.14 4.29 9.5 2.66 0 0 3.65 2.73 7.44 1.41 1.44 1.38 2.75 1.65 2.75 1.65s1.73.41 3.34-.91l.13.05s2.08.58 4.63-.93c0 0 .95.9 5.51-1.23l8.23-5.94s2.6.51 6.54 6.68c0 0 1.55 3.88 2.19 7.12.64 3.24 1.18 8.06 1.35 10.18.17 2.12.2 5.02.2 5.02s1.72 3.34 2.23 5.94.71 10.05.71 10.05 1.18-4.15 1.18-4.25c0-.1 1.18-8.84 1.18-8.84l1.45-9.04c0 .02.54-6.28.41-8.68z" fill="#592a0b" stroke-width="none" opacity="1"></path><path id="SvgjsPath12402" d="M141.44 44.31c-.76-2.57-2.5-4.66-4.32-6.46-1.71-1.67-3.61-3.1-5.6-4.39.22-.75.35-1.53.35-2.32-.02-2.53-1.23-4.89-2.95-6.63-1.75-1.77-4.04-2.77-6.26-3.55-2.23-.8-4.52-1.4-6.58-2.44-1.02-.51-1.95-1.25-2.49-2.26-.54-1.01-.59-2.27-.15-3.36-.54 1.05-.6 2.36-.09 3.48.36.82.98 1.5 1.69 2.05-.92-.33-1.85-.59-2.77-.8-2.85-.68-5.73-1.07-8.6-1.47-1.43-.2-2.86-.4-4.28-.64-1.41-.26-2.83-.5-4.12-1.01-.32-.13-.63-.28-.9-.46-.27-.2-.56-.4-.81-.64a9.41 9.41 0 0 1-1.38-1.57c-.8-1.15-1.43-2.46-1.82-3.81l-.54-1.85.04 1.91c.04 1.74.27 3.45.72 5.12.4 1.41.99 2.83 2 3.9-1.53-.41-3.06-.79-4.58-1.17-2.64-.7-5.22-1.73-7.5-3.26-1.14-.76-2.18-1.66-3.12-2.67-.93-1-1.75-2.14-2.28-3.38l-.33.1c.55 2.23 1.33 4.42 2.52 6.4.81 1.36 1.85 2.57 3.01 3.63-1.45-.71-2.78-1.65-3.9-2.8-.57-.57-1.09-1.19-1.57-1.84-.47-.65-.92-1.33-1.27-2.03l-.78-1.54.24 1.71c.31 2.14.81 4.24 1.59 6.27.07.19.17.37.25.56-.57-1.02-1.16-2.03-1.78-3.02-.85-1.36-1.72-2.7-2.65-4.01l-.82-1.16.32 1.43c.38 1.66.28 3.41.16 5.16-.01-.03-.01-.06-.02-.08-.27-.91-.85-1.67-1.52-2.28.59.69 1.07 1.49 1.26 2.35.19.87.05 1.76-.26 2.58-.32.82-.77 1.59-1.28 2.33-.52.76-1.02 1.53-1.47 2.34-.92 1.61-1.6 3.39-1.88 5.27-.31 1.88.08 3.88.78 5.59.16.41.35.8.54 1.19-1.92 1.25-3.7 2.75-5.17 4.54-.79.97-1.5 2.01-2.07 3.14-.58 1.14-.92 2.36-1.21 3.58-1.09 4.9-1.15 9.89-.94 14.85.1 2.5.57 4.95.95 7.38l1.23 7.29c.42 2.41.65 4.88 1.12 7.31.44 2.43.92 4.85 1.42 7.27l.4-.05c-.12-1.71-.16-3.42-.19-5.14-.03-1.71 0-3.43.12-5.14.11-1.71.31-3.39.89-5.01.52-1.61 1.14-3.24 1.95-4.68l.04-.08v-.09c.13-2.53.31-5.06.56-7.58.28-2.52.56-5.03 1.04-7.51.24-1.24.52-2.47.88-3.67.36-1.2.75-2.4 1.34-3.49.57-1.07 1.39-2.09 2.12-3.11.38-.5.77-1.01 1.18-1.48.33-.36.68-.77 1.07-1.04 1.5 1.07 3.26 1.66 5.01 2 1.71.29 3.44.4 5.15.3 1.18.8 2.41 1.54 3.72 2.11.96.4 1.96.73 2.99.89.98.14 2.03.14 2.93-.28.4.37.85.69 1.33.92 1.98.96 4.24.99 6.29.54.77.72 1.67 1.29 2.71 1.58 1.25.26 2.57-.15 3.53-.97 1.32.45 2.85.24 4.06-.5.16-.1.3-.22.45-.33 1.11.34 2.32.14 3.41-.19 1.14-.36 2.21-.91 3.22-1.53 2-1.26 3.94-2.61 5.82-4.05.54-.41 1.07-.84 1.59-1.28.98.58 1.83 1.36 2.62 2.18.92.97 1.76 2.02 2.53 3.11.78 1.06 1.28 2.29 1.71 3.55.42 1.26.76 2.55 1.03 3.86.56 2.62.88 5.29 1.18 7.96.28 2.67.48 5.36.61 8.04v.09l.04.08c.81 1.44 1.43 3.06 1.95 4.68.58 1.62.77 3.3.89 5.01.11 1.71.15 3.42.12 5.14-.03 1.71-.08 3.43-.19 5.14l.4.05c.53-2.51 1.02-5.03 1.48-7.56.22-1.26.43-2.54.59-3.81.16-1.26.37-2.52.58-3.78l1.28-7.58c.21-1.27.41-2.54.58-3.82.17-1.29.23-2.59.28-3.88.16-5.17.07-10.39-1.42-15.43zm-69.72-1.39c-.46.45-.89.92-1.32 1.4-.82.98-1.66 1.93-2.33 3.08-1.29 2.28-1.93 4.81-2.47 7.3-.51 2.51-.9 5.04-1.12 7.59-.23 2.52-.37 5.04-.38 7.58-.79 1.56-1.31 3.16-1.77 4.79-.5 1.66-.69 3.42-.77 5.13-.08 1.72-.08 3.44-.09 5.16 0 .75.01 1.51.03 2.26-.24-1.48-.48-2.96-.69-4.45-.36-2.43-.55-4.88-.91-7.34-.34-2.45-.75-4.88-1.12-7.31-.36-2.44-.74-4.86-.88-7.29-.13-2.44-.15-4.9-.05-7.34.12-2.44.27-4.89.77-7.27.76-4.63 3.96-8.46 7.69-11.32.64 1.24 1.44 2.41 2.37 3.44 1.26 1.38 2.68 2.59 4.18 3.65-.44.25-.78.62-1.14.94zm6.39.68c-1.74-.44-3.44-1.1-4.79-2.23-2.83-2.23-5.42-4.83-6.69-8.16-.68-1.65-1.01-3.35-.77-5.1.2-1.74.83-3.43 1.62-5.03.4-.8.84-1.59 1.32-2.36.4-.65.77-1.34 1.05-2.06-.09 1.28-.17 2.57-.2 3.87-.04 2.07.06 4.17.54 6.24.46 2.08 1.42 4 2.58 5.74 2.35 3.49 5.51 6.28 8.81 8.74.5.37 1.01.73 1.52 1.08-1.69-.09-3.37-.31-4.99-.73zm11.8 3.53c-.99-.21-1.94-.6-2.84-1.05-1.82-.91-3.46-2.11-5.05-3.39-3.15-2.58-6.26-5.31-8.45-8.7-1.1-1.68-1.94-3.52-2.41-5.45-.48-1.94-.6-3.97-.59-6 0-2.03.18-4.07.27-6.13.05-1.03.08-2.06.05-3.11-.02-.61-.06-1.23-.14-1.85 1.51 2.03 2.99 4.08 4.37 6.21.29.62.61 1.23 1 1.81.6.91 1.41 1.79 2.33 2.39 1.75 1.26 3.59 2.34 5.17 3.69 1.57 1.34 2.86 2.98 3.64 4.91 1.68 3.84 1.84 8.19 3.2 12.31.35 1.03.76 2.03 1.29 2.99.28.49.64.94 1.05 1.32-.94.33-1.95.24-2.89.05zm4.42.52a5.585 5.585 0 0 1-2.1-2.16c-.46-.92-.84-1.91-1.14-2.92-1.14-4.03-1.28-8.41-2.98-12.48a13.2 13.2 0 0 0-3.87-5.29c-1.69-1.41-3.55-2.47-5.28-3.68-1.73-1.09-2.77-2.97-3.6-4.87-.62-1.47-1.11-3.01-1.46-4.57.67.93 1.43 1.78 2.28 2.55.61.56 1.27 1.06 1.97 1.49.68.45 1.42.77 2.17 1.08.54.49 1.09.96 1.69 1.39 1.85 1.39 4.04 2.32 6.09 3.21 1.98.98 3.56 2.63 4.66 4.55 2.18 3.91 3.03 8.46 3.7 12.94.28 2.25.72 4.59 1.75 6.66.57 1.1 1.3 2.15 2.22 3-2.09.27-4.31.12-6.1-.9zm8.83 2.38c-2.19-.67-3.8-2.56-4.69-4.61-.42-1.05-.77-2.12-.95-3.24-.21-1.11-.28-2.23-.41-3.38-.22-2.28-.59-4.56-1.12-6.81-.53-2.24-1.29-4.47-2.49-6.49-1.17-2.02-2.91-3.82-5.09-4.78-2.16-.86-4.25-1.65-6.12-2.95-1.89-1.23-3.5-2.88-4.7-4.81-.94-1.49-1.59-3.13-2.07-4.82 1.17 1.98 2.83 3.64 4.68 5 2.29 1.65 4.9 2.82 7.6 3.59 2.69.76 5.36 1.43 7.97 2.34 2.6.89 5.12 2.02 7.33 3.58 2.2 1.55 3.96 3.7 4.89 6.22.97 2.52 1.42 5.26 1.51 8 .1 2.74-.13 5.52-.87 8.17-.38 1.31-.87 2.65-1.77 3.67-.92 1.01-2.35 1.57-3.7 1.32zm7.44-1.58c-1.13.75-2.58 1.06-3.93.69.11-.09.22-.19.32-.3.95-1.06 1.51-2.38 1.96-3.71.87-2.67 1.25-5.48 1.3-8.29.01-2.81-.36-5.65-1.34-8.34-.99-2.71-2.89-5.06-5.22-6.72-2.32-1.69-4.98-2.75-7.63-3.64a60.4 60.4 0 0 0-3.41-1.02c-.96-1.12-1.47-2.57-1.81-3.99-.25-1.12-.39-2.26-.45-3.4.34.86.76 1.68 1.26 2.46.4.62.89 1.2 1.43 1.72.27.27.57.5.87.73.33.23.67.4 1.02.56 1.4.58 2.83.89 4.27 1.15 1.43.26 2.87.47 4.3.68 2.86.42 5.72.84 8.49 1.53 2.76.68 5.52 1.64 7.37 3.71 1.9 2.02 2.37 5.02 1.86 7.75-.29 1.32-.88 2.66-1.45 3.96-.6 1.3-1.24 2.59-1.93 3.86a83.922 83.922 0 0 1-4.46 7.4c-.84 1.18-1.63 2.43-2.82 3.21zm12.57-6.48c-1.79 1.51-3.69 2.89-5.6 4.27-.95.67-1.97 1.25-3.06 1.67-1.05.38-2.21.66-3.33.41 1.03-.77 1.8-1.82 2.58-2.81 1.74-2.33 3.27-4.8 4.72-7.32.73-1.26 1.41-2.54 2.05-3.85.63-1.32 1.24-2.64 1.59-4.14.26-1.47.33-2.99.01-4.48-.29-1.49-1-2.91-2.01-4.05a9.366 9.366 0 0 0-1.63-1.46c1.3.52 2.62.99 3.9 1.51 2.16.88 4.32 1.81 5.88 3.46 1.57 1.61 2.6 3.78 2.61 5.99.02 1.1-.23 2.2-.71 3.21-.46 1.01-1.19 1.89-1.96 2.77-1.53 1.73-3.26 3.3-5.04 4.82zm18.68 17.7c-.08 2.55-.42 5.04-.8 7.58l-1.17 7.6c-.39 2.55-.59 5.11-.95 7.63-.22 1.58-.47 3.15-.73 4.73.02-.75.03-1.5.03-2.25-.01-1.72-.01-3.44-.09-5.16-.09-1.71-.27-3.47-.77-5.13-.46-1.63-.98-3.23-1.77-4.79-.01-2.69-.17-5.37-.43-8.05-.26-2.7-.68-5.38-1.27-8.04-.62-2.63-1.37-5.34-3.07-7.58-.83-1.08-1.73-2.11-2.73-3.04-.84-.77-1.74-1.5-2.77-2.02 1.25-1.06 2.45-2.2 3.55-3.43.78-.88 1.6-1.83 2.14-2.96.18-.37.33-.77.46-1.17 1.89 1.38 3.67 2.93 5.28 4.62 1.74 1.84 3.27 3.92 3.93 6.33.68 2.42.95 4.96 1.09 7.49.15 2.55.17 5.1.07 7.64z" fill="#4a1e02" stroke-width="none" opacity="1"></path></g><g id="svga-group-glasses-single-move" transform="matrix(1,0,0,1,0,0)"><g id="svga-group-glasses-single"></g></g></g></g></g><rect id="svga-credit-rect" width="200" height="15" x="0" y="185" fill="#ecf0f1" opacity="0.5" style="display: none;"></rect><text id="svga-credit-text" font-family="Avenir Next, Roboto, Helvetica, Arial, sans-serif" font-size="10px" text-anchor="start" font-weight="400" size="10px" anchor="start" weight="400" fill="#333333" x="33.40447998046875" y="182.60824704170227" style="display: none;"><tspan id="SvgjsTspan12169" dy="13" x="33.40447998046875">Created on AvatarMaker.com</tspan></text></g><defs id="SvgjsDefs12116"></defs></svg>